<svg xmlns="http://www.w3.org/2000/svg" width="256" height="256"><path fill-opacity=".016" d="M0 128.004v128.004l128.25-.254 128.25-.254.254-127.75L257.008 0H0v128.004m.485.496c0 70.4.119 99.053.265 63.672.146-35.38.146-92.98 0-128C.604 29.153.485 58.1.485 128.5" fill="#1976D2" fill-rule="evenodd"/><path fill-opacity=".139" d="M103.346 2.065C85.257 5.866 71.718 11.6 55.929 22.147 29.093 40.074 9.51 69.329 2.341 102.204c-2.544 11.67-2.544 39.922 0 51.592 10.026 45.976 43.33 82.752 87.488 96.608 25.024 7.852 54.577 7.551 79.478-.807 31.667-10.631 59.052-34.806 74.259-65.555 8.813-17.821 13.796-40.151 13.142-58.894-.365-10.433-2.5-25.273-3.828-26.601-.277-.277-2.974.198-5.993 1.057l-5.489 1.561 1.305 7.668c1.524 8.955 3.36 11.927 9.063 14.667 3.51 1.687 4.167 2.476 4.198 5.037.028 2.378-.418 3.072-2.055 3.195-2.736.206-6.502 2.716-8.384 5.59-.827 1.262-2.17 6.093-2.984 10.736-7.616 43.426-39.506 79.088-81.641 91.298-13.12 3.802-23.515 4.987-38.295 4.365C62.793 241.206 15.399 194.054 12.322 134c-1.078-21.038 2.743-38.663 12.684-58.5C41.328 42.927 70.061 21.249 106.5 14.014c4.95-.982 10.159-2.246 11.575-2.809 2.856-1.134 5.491-4.626 6.488-8.601L125.217 0l-6.359.071c-3.497.039-10.477.936-15.512 1.994m28.191.185c1.95 6.536 6.822 10.164 14.925 11.117 2.952.347 6.057.895 6.9 1.218 1.168.449 1.922-.755 3.177-5.073.905-3.113 1.425-5.882 1.154-6.152-.93-.93-16.199-3.29-21.51-3.325-5.053-.033-5.284.077-4.646 2.215m31.529 8.347c-.684 3.057-1.092 5.69-.905 5.852.427.37 17.777 7.496 19.947 8.194 2.003.643 7.624-8.311 6.146-9.789-1.177-1.177-17.816-8.339-21.349-9.19-2.462-.592-2.66-.339-3.839 4.933M105.5 15.97c-29.479 6.398-55.019 23.389-71.803 47.77-6.042 8.777-13.282 24.629-16.332 35.76-2.529 9.228-2.74 11.428-2.737 28.5.002 16.928.231 19.35 2.691 28.5 11.577 43.058 47.435 76.382 90.439 84.05 10.496 1.871 31.065 1.821 41.195-.101 50.382-9.557 88.585-51.62 92.995-102.392 3.08-35.463-9.999-69.156-36.387-93.738-14.126-13.159-30.772-22.257-50.217-27.446-11.686-3.119-37.48-3.586-49.844-.903m11.5-.444c-.825.162-4.875.842-9 1.513-22.426 3.646-46.306 16.693-62.433 34.112-22.038 23.802-33.099 56.513-29.701 87.836 8.596 79.258 91.62 125.198 162.634 89.99 11.923-5.911 19.292-11.274 29.843-21.715 16.167-15.998 27.09-37.181 31.039-60.188 6.065-35.334-4.787-70.835-29.53-96.608-18.302-19.064-39.541-30.206-64.848-34.021-8.35-1.259-23.698-1.763-28.004-.919m76.523 5.974c-4.997 8.203-5.022 7.066.233 10.628 2.609 1.769 6.916 5.009 9.571 7.202l4.828 3.986 4.172-4.226 4.173-4.226-4-3.534C208.031 27.381 196.574 19 195.646 19c-.33 0-1.285 1.125-2.123 2.5m-67.461-.075c-.65.784-1.436 5.396-1.746 10.25-.511 8.017-.376 8.992 1.477 10.655 1.639 1.47 2.45 1.61 4.124.715 1.875-1.004 2.083-2.019 2.083-10.146 0-4.967-.466-9.901-1.035-10.965-1.223-2.285-3.253-2.496-4.903-.509M73.667 34.667c-1.287 1.287-.643 4.448 1.961 9.616C79.715 52.395 81.872 55 84.501 55c4.953 0 4.04-4.849-2.826-15-3.919-5.795-6.097-7.245-8.008-5.333m102.998 2.583c-1.34 1.788-3.918 5.903-5.729 9.147l-3.292 5.896 2.271 1.839c3.317 2.686 5.017 1.266 10.1-8.436 3.81-7.274 4.241-8.682 3.085-10.076-2.007-2.418-3.727-1.982-6.435 1.63m39.94 6.642l-3.8 3.892 6.207 7.811c3.413 4.296 6.431 8.395 6.704 9.108.274.713 1.148 1.297 1.943 1.297 1.893 0 9.323-4.256 9.333-5.346C237.009 58.865 222.548 40 221.16 40c-.415 0-2.464 1.751-4.555 3.892m-93.15 16.563c-1.35 1.35-2.455 3.375-2.455 4.5 0 1.473-.649 2.045-2.322 2.045-3.436 0-11.44 2.939-12.004 4.407-.269.701-.11 1.888.353 2.637.703 1.137 1.738 1.08 6.246-.341 7.694-2.425 7.727-2.41 7.727 3.579v5.281l-4.301 1.27c-9.092 2.685-18.944 13.191-21.712 23.153-1.232 4.438-1.289 18.709-.077 19.458.5.309 1.625.288 2.5-.048 1.237-.475 1.59-2.115 1.59-7.388 0-3.728.751-9.103 1.668-11.943 2.536-7.852 10.796-16.312 18.082-18.518 2.133-.646 2.25-.41 2.25 4.54 0 4.881-.269 5.451-4.13 8.756-6.868 5.879-6.87 5.894-6.87 45.194v35.102l2.25-.319 2.25-.32.5-35c.507-35.513.71-37.354 4.445-40.455 1.292-1.072 1.555-1.029 1.555.256 0 .85 1.125 2.883 2.5 4.517 3.387 4.025 3.223 7.704-.5 11.182-3.948 3.688-4.046 8.056-.265 11.795 3.234 3.199 2.984 2.221 3.14 12.275.12 7.766.21 8.057 2.375 7.75 2.11-.3 2.268-.86 2.538-9.031.272-8.195.469-8.892 3.327-11.75 1.671-1.672 4.017-3.039 5.212-3.04l2.173-.001-.291 23.751c-.16 13.063-.031 24.793.285 26.066.422 1.694 1.171 2.23 2.791 2l2.215-.315v-23.762c0-19.376.246-23.667 1.332-23.25.732.282 3.207.512 5.5.511h4.168v17.25c0 17.047.026 17.255 2.215 17.566 3.104.441 3.443-1.71 3.087-19.594l-.302-15.224 3.668.002c2.018 0 4.363-.266 5.213-.592 1.317-.505 1.587.857 1.832 9.25.272 9.345.401 9.859 2.537 10.163 2.227.316 2.25.195 2.25-11.782 0-9.834-.281-12.209-1.5-12.676-.825-.317-1.5-1.395-1.5-2.396 0-2.769-4.753-5.965-8.885-5.974l-3.615-.008-.145-5.246c-.08-2.885-.667-7.185-1.306-9.554-.967-3.594-1.524-4.257-3.354-3.996-1.691.24-2.127.887-1.9 2.812.162 1.375.55 5.537.862 9.25l.569 6.75h-4.536c-3.38 0-5.294.637-7.508 2.5-4.055 3.412-7.702 3.225-11.255-.578-3.719-3.982-4.18-8.959-1.129-12.207 1.211-1.289 2.215-3.215 2.231-4.279.025-1.625.506-1.412 3 1.33 1.842 2.024 2.971 4.353 2.971 6.127 0 3.956 2.534 6.002 4.721 3.814 3.13-3.13-1.867-14.18-7.8-17.248-2.695-1.393-2.921-1.939-2.921-7.052 0-5.283.105-5.51 2.25-4.857 1.238.377 4.399 1.87 7.026 3.318 4.111 2.265 4.91 2.423 5.735 1.132.527-.825.965-1.847.974-2.272.026-1.341-9.194-6.677-12.662-7.327-3.286-.617-3.323-.685-3.323-6.124v-5.5l3.688.692c5.452 1.023 14.877 6.089 19.841 10.664C166.688 90.654 173 103.667 173 112.967c0 3.85 2.053 6.736 3.956 5.56 1.852-1.145 1.111-11.719-1.299-18.527-2.936-8.293-6.676-14.174-12.817-20.156-5.532-5.388-17.475-11.717-23.682-12.55-3.235-.433-4.158-.982-4.158-2.471 0-2.551-4.383-6.823-7-6.823-1.15 0-3.195 1.105-4.545 2.455m3.212 2.212c-1.518 1.518-.52 3.333 1.833 3.333 2.73 0 3.164-.936 1.3-2.8-1.359-1.359-2.169-1.497-3.133-.533m109.019 7.06c-5.416 3.015-5.393 2.208-.391 13.773 1.903 4.4 3.707 8.737 4.008 9.637.503 1.504 1.002 1.511 6.122.086 3.066-.854 5.575-1.918 5.575-2.365 0-2.317-9.312-23.933-10.267-23.834-.128.014-2.399 1.23-5.047 2.703M126 76.5c0 5.2.136 5.5 2.5 5.5s2.5-.3 2.5-5.5-.136-5.5-2.5-5.5-2.5.3-2.5 5.5m-90.647-2.994c-2.716 2.018-1.014 4.132 7.923 9.833 7.661 4.888 10.826 5.443 12.1 2.123 1.01-2.631-.471-4.343-6.835-7.902-9.154-5.119-10.994-5.685-13.188-4.054m175.869 2.443C202.509 80.534 201 81.723 201 84c0 3.061 2.655 4.475 5.78 3.076 6.259-2.802 15.22-9.372 15.22-11.158 0-3.958-3.215-3.948-10.778.031M87.915 86.25C79.307 98.059 78 104.063 78 131.787c0 17.47.276 22.105 1.341 22.513 3.123 1.199 3.469-.971 3.87-24.3.45-26.226 1.14-29.516 8.302-39.589C95.48 84.831 95.983 82 93.006 82c-1.193 0-3.238 1.707-5.091 4.25M126 92.5c0 5.2.136 5.5 2.5 5.5s2.5-.3 2.5-5.5-.136-5.5-2.5-5.5-2.5.3-2.5 5.5m0 12.941c0 3 1.598 4.138 3.544 2.523 2.435-2.021 1.816-4.964-1.044-4.964-1.984 0-2.5.504-2.5 2.441M.392 128c0 7.425.157 10.463.35 6.75.192-3.713.192-9.787 0-13.5-.193-3.713-.35-.675-.35 6.75m123.552-5.156c-4.586 3.714-1.66 12.156 4.212 12.156 2.569 0 6.844-4.373 6.844-7s-4.275-7-6.844-7c-1.064 0-2.959.83-4.212 1.844m-100.609 1.851c-1.191.232-2.415 1.071-2.719 1.863-1.535 4.002 2.253 5.411 14.599 5.431 5.698.009 6.877-.292 7.785-1.989.76-1.421.76-2.579 0-4-.947-1.77-2.016-1.984-9.285-1.864-4.518.075-9.189.326-10.38.559m101.705.757c-2.657 3.201 1.245 8.118 4.71 5.936 3.462-2.181 2.229-7.388-1.75-7.388-.965 0-2.297.653-2.96 1.452m89.16-.252c-1.714 1.714-1.482 5.478.382 6.193 2.089.802 15.24.596 18.418-.288 3.827-1.064 3.481-5.376-.5-6.227-5.378-1.15-17.033-.945-18.3.322m-65.048.685c-.742.47-1.188 1.701-.992 2.735.271 1.425 1.383 1.954 4.599 2.187 4.13.3 4.241.228 4.241-2.75 0-2.785-.289-3.056-3.25-3.042-1.787.009-3.857.4-4.598.87m13.737-.385c-.828 3.727-.167 5.017 2.719 5.301 3.831.377 6.282-2.023 4.392-4.301-1.137-1.37-6.85-2.174-7.111-1m-68.222 12.167c-.367.366-.667 7.823-.667 16.569v15.903l2.25-.319c2.208-.314 2.255-.606 2.527-15.744.21-11.67-.034-15.622-1-16.235-1.571-.997-2.25-1.035-3.11-.174m32.034 27.965c-.385.386-.701 6.058-.701 12.604 0 11.772.025 11.9 2.25 11.584 2.19-.312 2.25-.637 2.25-12.306 0-10.027-.253-12.035-1.549-12.285-.852-.164-1.864.017-2.25.403m-84.257 7.618c-8.238 5.445-9.923 7.888-6.647 9.642C38.961 184.585 56 175.298 56 171.88c0-1.19-3.035-3.88-4.378-3.88-.679 0-4.809 2.363-9.178 5.25M202.2 169.2c-3.275 3.275-.991 5.933 9.684 11.269 6.57 3.284 7.55 3.525 8.887 2.189 2.349-2.349.881-4.273-7.368-9.658-8.127-5.305-9.3-5.703-11.203-3.8M80.196 203.75C77.031 208.237 73 216.779 73 218.998c0 1.136.755 2.355 1.679 2.709 2.086.801 6.597-4.224 10.777-12.004 2.512-4.676 2.756-5.742 1.627-7.102-1.985-2.393-4.709-1.939-6.887 1.149m89.047-1.593c-1.904 1.904-1.616 2.761 3.738 11.117 5.415 8.45 7.304 9.87 9.806 7.368 1.509-1.509 1.288-2.291-2.928-10.387-3.613-6.937-5.06-8.816-6.967-9.048-1.323-.161-2.965.266-3.649.95m-43.588 11.672c-1.776 1.963-2.162 10.143-.834 17.671.549 3.112 1.202 4.071 2.941 4.319 3.123.447 4.238-3.066 4.238-13.349 0-7.281-.258-8.537-1.934-9.435-2.506-1.341-2.474-1.347-4.411.794" fill="#1976D2" fill-rule="evenodd"/><path fill-opacity=".171" d="M118.776.557c-.306.307-2.519.716-4.917.91-2.397.193-5.709.58-7.359.859-1.65.279-4.795.787-6.989 1.13-2.194.342-4.387 1.02-4.872 1.505-.486.486-1.503.645-2.261.354C91.62 5.024 91 5.27 91 5.862c0 .591-.675.816-1.5.5-.825-.317-1.5-.092-1.5.5 0 .591-.675.816-1.5.5-.825-.317-1.5-.092-1.5.5s-.748.788-1.664.437c-1.111-.427-1.426-.254-.948.52.468.756.178.952-.836.563-.856-.329-1.552-.073-1.552.57 0 .641-.409.913-.91.604-1.403-.867-4.162.519-3.42 1.719.413.668.038.827-1.006.426-.915-.351-1.664-.176-1.664.389 0 .566-.45.75-1 .41s-1-.115-1 .5-.52.797-1.155.405c-.768-.475-.88-.271-.335.61.596.966.361 1.149-.869.678-1.032-.396-2.454.12-3.664 1.33C63.89 18.11 63 18.689 63 18.309c0-.38-.708.182-1.574 1.25-.866 1.067-1.277 1.266-.913.441.363-.825-.318-.375-1.513 1-1.195 1.375-1.876 1.825-1.513 1 .364-.825-.047-.626-.913.441-.866 1.068-1.589 1.518-1.607 1-.019-.517-.919.121-2 1.42-1.082 1.298-1.982 1.973-2 1.5-.019-.474-.919.201-2 1.5C47.885 29.159 47 29.844 47 29.383c0-.461-3.802 2.944-8.449 7.567s-8.251 8.726-8.009 9.118c.242.392-.58 1.382-1.829 2.2-1.248.818-2.343 2.476-2.435 3.685-.136 1.809.091 1.986 1.278 1 .794-.659 1.444-.848 1.444-.42 0 .427.9-.038 2-1.033 1.1-.995 2-1.431 2-.968 0 .463 1.35-.451 3-2.032s3-2.474 3-1.984c0 .489 1.781-.85 3.959-2.976 2.177-2.126 3.766-4.176 3.53-4.557-.235-.381.67-1.723 2.011-2.983 1.341-1.26 2.232-2.624 1.98-3.032-.252-.408.207-1.293 1.02-1.968.813-.675 1.251-1.595.973-2.044-.278-.45-.041-1.105.527-1.456.568-.351.793-1.026.5-1.5-.293-.474-.115-1.12.396-1.436 1.068-.66.922 1.338-.233 3.186-.43.688-.46 1.25-.067 1.25s-.101.9-1.096 2c-.995 1.1-1.445 2-1 2 .445 0-.005.9-1 2s-1.416 2-.934 2c.482 0-1.948 2.85-5.401 6.333-3.452 3.483-6.139 6.813-5.971 7.4.168.587.016 1-.339.917-.355-.082-1.592.707-2.75 1.755S33 54.96 33 54.533c0-.428-.675-.218-1.5.467s-1.5.91-1.5.5c0-.41-.675-.185-1.5.5s-1.5.91-1.5.5c0-.41-.788-.127-1.75.628-1.595 1.251-1.625 1.213-.342-.42.978-1.246 1.089-2.111.362-2.838-.726-.726-1.249-.713-1.716.043-.37.598-.334 1.087.078 1.087.413 0-.123.708-1.191 1.574-1.067.866-1.266 1.283-.441.926 1.333-.576 1.333-.501 0 .676-1.74 1.536-2.685 5.365-1.078 4.372.663-.41.81-.014.397 1.064-.444 1.157-.281 1.483.5 1 .78-.482.943-.156.5 1-.444 1.157-.281 1.483.5 1 .78-.482.943-.156.5 1-.444 1.157-.281 1.483.5 1 .78-.482.943-.156.5 1-.444 1.157-.281 1.483.5 1 .769-.476.947-.167.53.92-.506 1.321-.806 1.379-1.554.302-.623-.897-.719-.515-.295 1.166.506 2.004.407 2.203-.5 1-.907-1.203-1.006-1.004-.5 1s.407 2.203-.5 1c-.912-1.21-1.023-1.017-.575 1 .306 1.375.275 1.869-.068 1.099-.467-1.048-.96-.796-1.955 1-.818 1.476-1.351 1.823-1.382.901-.045-1.333-.158-1.333-1.02 0s-.973 1.333-1 0c-.027-1.333-.138-1.333-1 0-.533.825-.969 1.05-.969.5s.436-1.675.969-2.5c.862-1.333.973-1.333 1 0 .027 1.333.138 1.333 1 0s.976-1.333 1.03 0c.033.825 1.145-.525 2.47-3 2.619-4.892 3.049-6.457 1.511-5.507-.587.363-.721-.086-.33-1.105.444-1.157.281-1.483-.5-1-.78.482-.943.156-.5-1 .444-1.157.281-1.483-.5-1-.739.457-.957.191-.601-.735.306-.798-.037-1.793-.762-2.212-.725-.419-1.002-.411-.616.017s-1.025 4.213-3.135 8.41c-5.15 10.246-9.626 23.196-11.702 33.857-2.028 10.416-2.327 32.405-.583 42.852 9.179 54.957 52.548 97.708 107.38 105.85 22.541 3.347 43.888.752 65.716-7.987 9.498-3.803 24.462-12.367 24.358-13.94-.036-.55.401-1.562.971-2.25.571-.687.703-1.25.293-1.25s-.185-.675.5-1.5c.694-.837.803-1.5.245-1.5-.55 0-1.56.675-2.245 1.5s-.91 1.5-.5 1.5c.41 0 .278.563-.293 1.25-.57.688-1.038 1.625-1.039 2.083-.001.459-.336 1.134-.745 1.5-.409.367-.384.046.056-.713.547-.943.36-1.233-.59-.916-.764.254-1.389.979-1.389 1.61 0 1.575-4.273 4.444-5.494 3.69-.545-.337-1.781-.116-2.748.49-1.491.934-1.379 1.014.742.527 1.375-.315-.583 1.042-4.352 3.018-3.768 1.975-7.106 3.337-7.416 3.026-.311-.311.072-.572.851-.58 1.167-.013 1.152-.187-.083-.985-1.333-.862-1.333-.973 0-1 1.245-.025 1.265-.18.118-.906-1.076-.681-.881-1.035.882-1.594 1.422-.451 1.841-.98 1.127-1.422-.691-.427.265-1.371 2.437-2.407 1.966-.938 3.292-1.247 2.946-.688-.814 1.318.112 1.29 2.676-.083 1.586-.848 1.882-.819 1.295.13-.48.777-.28 1.07.542.796.716-.239 1.419-1.232 1.563-2.208.176-1.204-.214-1.591-1.215-1.207-.947.364-1.219.151-.759-.592.478-.774.163-.947-.948-.52-2.371.909-2.061-.016.457-1.364 1.673-.895 1.955-.867 1.336.135-.561.908-.295 1.082.931.611 1.128-.432 1.479-.275 1.025.46-.406.656-.153.939.61.685.716-.239 1.419-1.232 1.563-2.208.172-1.177-.218-1.589-1.163-1.227-2.219.852-1.68.007 1.2-1.88 1.712-1.121 2.33-1.248 1.778-.365-1.321 2.117-1.359 4.007-.071 3.577.644-.214 1.226-.915 1.295-1.556.069-.642.235-1.505.368-1.917.134-.412.205-1.044.157-1.404-.047-.36.687-1.26 1.632-2 1.55-1.214 1.584-1.175.346.404-.755.962-.923 1.75-.373 1.75 1.268 0 3.399-2.513 2.712-3.2-.283-.283.283-1.142 1.259-1.907 1.613-1.267 1.65-1.234.402.357-.755.963-1.038 1.75-.628 1.75.41 0 .185.675-.5 1.5-.694.837-.803 1.5-.245 1.5.55 0 1.56-.675 2.245-1.5s.886-1.5.448-1.5.26-1.125 1.552-2.5 1.99-2.5 1.552-2.5c-.438 0-.241-.67.439-1.489.68-.819 1.704-1.199 2.277-.845.648.4.736.149.232-.666-.569-.921-.421-1.069.5-.5s1.069.421.5-.5-.421-1.069.5-.5c.805.498 1.066.416.678-.212-.347-.561.259-1.826 1.346-2.809 1.087-.984 1.976-1.416 1.976-.96 0 .456 1.125-.227 2.5-1.519 1.375-1.292 2.5-1.975 2.5-1.519 0 .456.9.014 2-.981s2-1.46 2-1.033c0 .428.675.218 1.5-.467s1.5-.91 1.5-.5c0 .41.596.25 1.324-.354.935-.776 1.636-.786 2.387-.035.751.751 1.261.744 1.735-.024.37-.598.334-1.087-.078-1.087-.413 0 .123-.708 1.191-1.574 1.067-.866 1.266-1.283.441-.926-.9.389-.774.055.317-.835.999-.815 1.786-1.749 1.75-2.074-.233-2.062.073-2.623 1.088-1.996.715.443.883.275.44-.44-.392-.635-.21-1.155.405-1.155s.84-.45.5-1c-.34-.55-.141-1 .441-1s.952-.338.821-.75c-.401-1.265 2.421-7.25 3.418-7.25.516 0 .66-.45.32-1s-.156-1 .41-1c.565 0 .74-.749.389-1.664-.427-1.111-.254-1.426.52-.948.756.468.952.178.563-.836-.328-.854-.194-1.552.297-1.552s.97-.787 1.065-1.75c.095-.963 1.576-6.925 3.292-13.25 1.716-6.325 3.295-13.3 3.509-15.5.214-2.2.595-5.687.847-7.75.505-4.136-.396-4.617-4.845-2.589-1.535.699-2.553 1.99-2.562 3.25-.01 1.345-.287 1.661-.778.889-.512-.805-1.136-.312-1.897 1.5-1.381 3.288-4.647 18.685-4.741 22.355-.038 1.459-.477 2.402-.977 2.093-.499-.308-.653.41-.343 1.597.311 1.187.251 1.964-.132 1.727-.787-.486-8.267 16.013-8.436 18.607-.06.923-.413 1.598-.784 1.5-.371-.099-2.522 2.574-4.78 5.938-13.07 19.477-33.688 36.118-54.347 43.866-2.601.975-4.457 2.214-4.125 2.752.372.602-.263.704-1.645.265-1.686-.535-2.053-.394-1.461.563.563.911.306 1.092-.897.63-2.365-.908-12.057 1.417-10.415 2.498.728.479-.656.61-3.227.307-3.342-.394-3.985-.28-2.5.443 1.43.696.006.858-5 .567-5.091-.297-6.045-.184-3.5.411 2.376.555-.835.814-10 .807-9.366-.007-12.275-.252-9.5-.802 2.93-.581 1.994-.683-3.5-.384-5.311.289-6.916.125-5.5-.562 1.493-.725.859-.846-2.5-.478-3.45.378-4.034.258-2.5-.514 1.549-.78 1.098-.884-2-.46-2.905.398-3.589.268-2.5-.474 1.333-.908 1.333-1.015 0-.966-.825.03-2.4.441-3.5.914l-2 .859 2 .141 2 .141-2 .859c-1.911.821-1.915.863-.083.93 4.129.151.369 1.313-5.114 1.58-4.041.196-5.196.01-3.803-.612 1.482-.662 1.094-.765-1.5-.398-2.668.377-3.024.274-1.5-.432 1.1-.51 1.474-.959.832-.998-.643-.038-1.993-.337-3-.664-1.524-.495-1.58-.413-.332.484 1.864 1.341.058 1.44-2 .11-1.333-.862-1.333-.973 0-1 1.333-.027 1.333-.138 0-1s-1.333-.973 0-1c1.333-.027 1.333-.138 0-1s-1.333-.975 0-1.02c.908-.031.513-.615-1-1.48-1.375-.786-2.05-1.429-1.5-1.429 1.716 0 6.131 2.854 4.5 2.909-1.333.045-1.333.158 0 1.02 1.235.798 1.25.972.083.985-.779.008-1.182.25-.895.536.287.287 1.599.091 2.917-.436 1.989-.796 2.07-.969.478-1.022-1.054-.034-1.65-.329-1.325-.654.325-.326 1.585-.276 2.799.109 1.725.548 1.905.892.825 1.576-1.147.726-1.127.881.118.906 1.333.027 1.333.149 0 1.096-1.143.812-.786.92 1.5.455 2.211-.451 2.605-.345 1.5.403-1.333.903-1.333 1.009 0 .96.825-.03 2.4-.441 3.5-.914l2-.859-2-.15c-1.535-.114-1.307-.4.982-1.231l2.982-1.081-5.178-1.76c-2.847-.968-6.214-1.532-7.482-1.253-1.561.344-1.892.213-1.026-.406 1.705-1.217-3.067-3.47-5.43-2.563-1.122.43-1.439.26-.96-.516.482-.78.156-.943-1-.5-1.157.444-1.483.281-1-.5.482-.78.156-.943-1-.5-1.157.444-1.483.281-1-.5.472-.763.173-.95-.877-.547-.876.336-1.462.151-1.302-.411.16-.562-3.162-3.285-7.381-6.051-16.721-10.962-31.287-27.74-40.382-46.514-4.364-9.008-5.372-10.466-5.959-8.618-.551 1.736-.898 1.921-1.581.842-.739-1.167-.878-1.161-.891.035-.008.779-.25 1.182-.536.895-.287-.287-.091-1.599.436-2.917.853-2.132.973-2.175 1.092-.395l.134 2 .859-2c1.219-2.837 1.164-4.274-.096-2.5-.812 1.143-.92.786-.455-1.5.478-2.345.369-2.672-.5-1.5-.887 1.198-1 .988-.562-1.046.302-1.401.184-3.876-.263-5.5l-.812-2.954-.751 3.322c-.413 1.826-.966 3.106-1.229 2.843-.263-.262-.013-2.162.556-4.22 1.05-3.806.297-14.322-.802-11.189-.322.918-.586-6.494-.586-16.472 0-9.978.172-17.274.383-16.213.4 2.022 4.275-14.13 4.492-18.726.069-1.459.426-2.468.794-2.24.369.227 1.218-1.278 1.889-3.346.67-2.067 2.746-6.815 4.614-10.55 1.867-3.736 3.121-7.234 2.787-7.775-.334-.541-.168-.86.369-.709.538.151 2.146-1.432 3.575-3.519 2.888-4.22 3.2-5.171 1.347-4.105-.726.418-.901.338-.417-.191.459-.5 1.172-.91 1.585-.91.414 0 3.016-2.72 5.782-6.044 6.324-7.599 16.02-16.417 23.8-21.646 3.3-2.217 5.876-4.465 5.725-4.995-.151-.53.138-.709.642-.397 1.127.696 19.366-7.851 18.532-8.685-.328-.329.418-.332 1.658-.008 1.694.443 2.054.263 1.445-.722-.534-.865-.421-1.071.332-.605 1.002.618 11.497-1.41 23.583-4.558C119.303 10.567 124 6.027 124 2.577 124 .544 123.507 0 121.667 0c-1.284 0-2.584.251-2.891.557m13.228 1.077c.005 2.473 3.428 7.996 5.692 9.185 2.253 1.182 16.255 3.564 16.938 2.881 1.031-1.032 3.229-9.666 2.561-10.064-1.245-.741-11.536-2.531-18.445-3.208-6.159-.603-6.75-.498-6.746 1.206m31.669 7.249a141 141 0 01-1.233 5.5c-.466 1.857-.262 2.622.702 2.635 1.073.015 10.016 3.51 19.428 7.594.589.255 2.26-1.721 3.714-4.392l2.643-4.857-4.713-2.323C177.296 9.631 167.869 6 165.935 6c-1.057 0-1.9 1.074-2.262 2.883m-39.393 5.853c2.629.207 6.679.204 9-.005 2.321-.21.17-.379-4.78-.376-4.95.003-6.849.175-4.22.381m-12.53.926c.688.278 1.813.278 2.5 0 .688-.277.125-.504-1.25-.504s-1.937.227-1.25.504m30.519.031c.973.254 2.323.237 3-.037.677-.274-.119-.481-1.769-.461-1.65.02-2.204.244-1.231.498m-36.456.99c.721.289 1.584.253 1.916-.079.332-.332-.258-.568-1.312-.525-1.165.048-1.402.285-.604.604m43 0c.721.289 1.584.253 1.916-.079.332-.332-.258-.568-1.312-.525-1.165.048-1.402.285-.604.604m5 1c.721.289 1.584.253 1.916-.079.332-.332-.258-.568-1.312-.525-1.165.048-1.402.285-.604.604m-90.372 2.819c-1.882 1.457-1.883 1.482-.027.831 1.314-.462 1.69-.31 1.198.486-.482.78-.156.943 1 .5 1.157-.444 1.483-.281 1 .5-.482.78-.156.943 1 .5 1.157-.444 1.483-.281 1 .5-.482.78-.156.943 1 .5 1.226-.471 1.492-.297.931.611-.619 1.002-.337 1.03 1.336.135 2.518-1.348 2.828-2.273.457-1.364-1.111.427-1.426.254-.948-.52.482-.78.156-.943-1-.5-1.157.444-1.483.281-1-.5.482-.78.156-.943-1-.5-1.157.444-1.483.281-1-.5.482-.78.156-.943-1-.5-1.164.447-1.484.283-.993-.511.973-1.574.378-1.473-1.954.332m129.163 3.091c-1.432 2.563-2.603 4.94-2.602 5.283.001.343 1.967 1.866 4.37 3.384 2.403 1.518 6.481 4.619 9.062 6.891l4.693 4.131 3.937-3.844c2.165-2.114 3.936-4.111 3.936-4.437 0-.674-13.729-11.575-17.989-14.284l-2.804-1.782-2.603 4.658M126.5 31.354c0 8.352.265 10.146 1.5 10.146 1.204 0 1.557-1.816 1.787-9.195.249-7.986.052-9.32-1.5-10.147-1.661-.884-1.787-.235-1.787 9.196M61.923 23.25c-.794 2.595-.531 3.537.84 3.011 1.144-.439 1.344-.219.741.819-.455.783-.44 1.07.031.641 1.576-1.434 1.358-3.617-.298-2.982-1.032.396-1.319.203-.842-.569.398-.644.471-1.17.164-1.17-.307 0-.593.113-.636.25M175 25c.825.533 1.95.969 2.5.969s.325-.436-.5-.969c-.825-.533-1.95-.969-2.5-.969s-.325.436.5.969m-116.125.5c-.069.275-.188.837-.265 1.25-.077.413-.498 1.313-.934 2-.437.688-.487 1.25-.113 1.25.375 0 .122.675-.563 1.5-.685.825-.895 1.5-.467 1.5.427 0-.08 1.013-1.128 2.25L53.5 37.5l2.21-1.869c1.216-1.028 2.175-2.153 2.132-2.5-.043-.347.031-.968.165-1.381.133-.413.355-1.2.493-1.75s.341-1.113.452-1.25c.45-.559.842-3.75.46-3.75-.227 0-.468.225-.537.5m17.566 1.055c-1.83 1.467-1.798 1.487.559.365 3.061-1.458 3.628-1.92 2.358-1.92-.537 0-1.849.7-2.917 1.555M179 26.449c0 .275 1.35 1.198 3 2.051 1.65.853 3 1.326 3 1.051 0-.275-1.35-1.198-3-2.051-1.65-.853-3-1.326-3-1.051M49.5 28c-.34.55-.288 1 .115 1 .404 0-.323 1.125-1.615 2.5S46.054 34 46.547 34c.492 0-1.982 2.903-5.499 6.452-3.517 3.548-6.707 6.259-7.088 6.023-.381-.235-1.488.451-2.46 1.525-.972 1.074-2.126 1.731-2.565 1.46-.438-.271-1.055-.075-1.371.436-.828 1.341 1.95.752 3.835-.812.881-.731 1.601-.961 1.601-.51 0 .45 1.492-.628 3.316-2.395 1.823-1.768 3.551-2.978 3.839-2.69.288.288 1.341-.379 2.339-1.483.999-1.103 1.433-2.006.965-2.006-.468 0 .675-1.575 2.541-3.5 1.866-1.925 3.024-3.5 2.574-3.5-.451 0-.221-.72.51-1.601C50.333 29.894 51.245 27 50.471 27c-.194 0-.631.45-.971 1m-6 5c-1.581 1.65-2.481 3-2 3 .481 0-.404 1.334-1.966 2.964-1.562 1.631-3.156 2.77-3.542 2.531-.386-.238-1.779.777-3.097 2.256-1.317 1.478-1.679 2.143-.803 1.477.876-.666 1.802-1.001 2.059-.744.256.257 2.899-1.997 5.873-5.009C42.998 36.464 45.04 34 44.561 34c-.479 0-.056-.9.939-2 2.863-3.164 1.185-2.325-2 1M54 31.5c-.685.825-.895 1.5-.467 1.5.427 0-.038.9-1.033 2-.995 1.1-1.415 2-.932 2s-2.26 3.263-6.095 7.25L38.5 51.5l7.222-6.945c3.972-3.82 7.008-7.158 6.747-7.419-.26-.26.272-1.298 1.184-2.305.911-1.007 1.307-1.831.88-1.831-.428 0-.218-.675.467-1.5s1.02-1.5.745-1.5-1.06.675-1.745 1.5m140 3.878c0 .207.787.995 1.75 1.75 1.586 1.243 1.621 1.208.378-.378-1.307-1.666-2.128-2.195-2.128-1.372M58.872 37.75c-1.243 1.586-1.208 1.621.378.378.962-.755 1.75-1.543 1.75-1.75 0-.823-.821-.294-2.128 1.372M75 37.479c0 .745 1.585 4.343 3.523 7.996 1.938 3.653 3.302 7 3.03 7.439-.271.438.619.585 1.977.325 1.359-.26 2.466-.982 2.46-1.606-.005-.623-1.813-3.976-4.017-7.451-2.204-3.474-3.806-6.643-3.56-7.042.247-.399-.42-.79-1.482-.87-1.062-.08-1.931.464-1.931 1.209m102.7 1.752c-1.336 1.798-3.623 5.346-5.081 7.884-2.278 3.965-2.447 4.783-1.202 5.816 1.173.973 1.717.76 2.852-1.114.772-1.274 2.117-3.485 2.99-4.913 4.897-8.018 5.25-14.141.441-7.673m21.8.769c.995 1.1 2.035 2 2.31 2 .275 0-.315-.9-1.31-2-.995-1.1-2.035-2-2.31-2-.275 0 .315.9 1.31 2M52.946 42.75L49.5 46.5l3.75-3.446c2.063-1.896 3.75-3.583 3.75-3.75 0-.764-.846-.044-4.054 3.446m-12.074-1c-1.243 1.586-1.208 1.621.378.378.962-.755 1.75-1.543 1.75-1.75 0-.823-.821-.294-2.128 1.372m176.302 2.572l-4.233 4.314 2.091 1.893c1.15 1.041 4.356 4.947 7.124 8.682 2.768 3.734 5.234 6.789 5.478 6.789.958 0 8.26-4.02 8.754-4.819.796-1.288-2.986-6.667-14.363-20.427-.339-.41-2.522 1.196-4.851 3.568m-9.216 2.928c2.452 2.612 4.59 4.75 4.75 4.75.751 0-.043-.898-4.458-5.042L203.5 42.5l4.458 4.75M36.004 49.496c-1.29 1.373-2.565 2.277-2.833 2.009-.665-.665-3.171 1.5-3.171 2.74 0 .558.663.449 1.5-.245.825-.685 1.5-.895 1.5-.467 0 .427.824.031 1.831-.88 1.007-.912 2.204-1.319 2.66-.905.457.414.494.17.083-.542-.41-.711-.202-1.949.462-2.75 2.005-2.415.481-1.636-2.032 1.04m6.433 3.754L39.5 56.5l3.25-2.937c1.788-1.615 3.25-3.078 3.25-3.25 0-.773-.825-.092-3.563 2.937m-14.77.417c-.367.366-.667 1.131-.667 1.7 0 .626.466.567 1.183-.15.651-.651.951-1.416.667-1.7-.284-.284-.817-.217-1.183.15m7.342 1.822c-.68.819-1.604 1.262-2.053.984-.45-.278-1.105-.041-1.456.527-.351.568-1.026.793-1.5.5-.474-.293-1.149-.068-1.5.5-.351.568-1.026.793-1.5.5-.474-.293-1.187-.006-1.585.638-.478.774-.288.902.56.377.856-.529 1.13-.33.821.596-.254.764-.95 1.389-1.546 1.389-.596 0-1.458.41-1.917.91-.494.54-.255.575.587.086 1.067-.619 1.256-.397.761.892-.443 1.156-.28 1.482.5 1 .759-.469.952-.176.558.849-.635 1.656 1.548 1.874 2.982.298.429-.471.142-.486-.641-.031-1.067.619-1.256.397-.761-.892.432-1.128.275-1.479-.46-1.025-.673.416-.934.138-.655-.698.254-.764.95-1.389 1.546-1.389.596 0 1.458-.41 1.917-.91.492-.538.268-.583-.547-.111-.943.547-1.233.36-.916-.59.254-.764.988-1.445 1.629-1.514.642-.069 1.504-.235 1.917-.368.413-.134 1.034-.208 1.381-.165.347.043 1.429-.804 2.405-1.882.976-1.078 1.534-1.96 1.241-1.96-.292 0-1.088.67-1.768 1.489M215.5 56c.995 1.1 2.035 2 2.31 2 .275 0-.315-.9-1.31-2-.995-1.1-2.035-2-2.31-2-.275 0 .315.9 1.31 2M36.872 59.75c-1.243 1.586-1.208 1.621.378.378.962-.755 1.75-1.543 1.75-1.75 0-.823-.821-.294-2.128 1.372m88.924-.536c-1.488.507-3.018 1.904-3.4 3.104-.383 1.2-.716 12.185-.74 24.411-.043 21.538.024 22.302 2.15 24.565 1.439 1.532 2.194 3.603 2.194 6.02 0 3.019.362 3.686 2 3.686s2-.667 2-3.686c0-2.446.756-4.49 2.25-6.078 2.175-2.313 2.259-3.128 2.514-24.564.278-23.396-.156-26.217-4.264-27.672-1.1-.389-3.217-.293-4.704.214m92.204.164c0 .207.787.995 1.75 1.75 1.586 1.243 1.621 1.208.378-.378-1.307-1.666-2.128-2.195-2.128-1.372m-91.771 3.793c-1.445 1.445-1.761 42.441-.344 44.677.47.742 1.701 1.186 2.735.987 1.775-.342 1.88-1.645 1.88-23.335 0-19.765-.212-23.014-1.521-23.265-.836-.162-2.074.26-2.75.936m109.611 6.794l-4.661 2.927 3.751 8.804c2.063 4.842 4.047 9.627 4.41 10.634.677 1.881 3.631 1.745 9.411-.433l2.25-.848-2.381-6.274c-2.805-7.39-7.38-17.783-7.815-17.756-.168.01-2.402 1.336-4.965 2.946M30 70c-.589 1.1-.845 2-.57 2s.981-.9 1.57-2c.589-1.1.845-2 .57-2s-.981.9-1.57 2m196 1c.589 1.1 1.295 2 1.57 2 .275 0 .019-.9-.57-2s-1.295-2-1.57-2c-.275 0-.019.9.57 2M36.542 74.932c-.715 1.156 5.864 6.185 12.569 9.607l4.611 2.354-.111-2.149c-.084-1.628-2.095-3.202-8.281-6.481-4.811-2.551-8.424-3.921-8.788-3.331m173.744 3.621c-6.855 3.886-8.031 5.102-6.453 6.68.745.745 3.024-.174 7.689-3.099 3.647-2.287 6.953-3.958 7.347-3.715.394.243.781-.426.861-1.488.214-2.84-2.348-2.4-9.444 1.622M22.624 84.539c-.965 2.514-.681 3.163.498 1.136.584-1.004.851-2.036.593-2.293-.257-.258-.749.263-1.091 1.157M7.079 94.583c.048 1.165.285 1.402.604.605.289-.722.253-1.585-.079-1.917-.332-.332-.568.258-.525 1.312m3 3c.048 1.165.285 1.402.604.605.289-.722.253-1.585-.079-1.917-.332-.332-.568.258-.525 1.312m2 0c.048 1.165.285 1.402.604.605.289-.722.253-1.585-.079-1.917-.332-.332-.568.258-.525 1.312m-6 1c.048 1.165.285 1.402.604.605.289-.722.253-1.585-.079-1.917-.332-.332-.568.258-.525 1.312m12 0c.048 1.165.285 1.402.604.605.289-.722.253-1.585-.079-1.917-.332-.332-.568.258-.525 1.312M246 100.18c-1.925.55-3.635 1.132-3.8 1.293-.643.629 2.13 14.176 3.421 16.716 1.735 3.413 5.135 5.811 8.239 5.811 2.407 0 2.413-.029 1.714-7.75-.387-4.263-1.161-9.888-1.721-12.5-1.102-5.141-1.585-5.36-7.853-3.57M9.079 101.583c.048 1.165.285 1.402.604.605.289-.722.253-1.585-.079-1.917-.332-.332-.568.258-.525 1.312m2 0c.048 1.165.285 1.402.604.605.289-.722.253-1.585-.079-1.917-.332-.332-.568.258-.525 1.312m-6 1c.048 1.165.285 1.402.604.605.289-.722.253-1.585-.079-1.917-.332-.332-.568.258-.525 1.312m2 0c.048 1.165.285 1.402.604.605.289-.722.253-1.585-.079-1.917-.332-.332-.568.258-.525 1.312m10 0c.048 1.165.285 1.402.604.605.289-.722.253-1.585-.079-1.917-.332-.332-.568.258-.525 1.312m-5 3c.048 1.165.285 1.402.604.605.289-.722.253-1.585-.079-1.917-.332-.332-.568.258-.525 1.312m227 0c.048 1.165.285 1.402.604.605.289-.722.253-1.585-.079-1.917-.332-.332-.568.258-.525 1.312M8.158 107c0 1.375.227 1.938.504 1.25.278-.687.278-1.812 0-2.5-.277-.687-.504-.125-.504 1.25m1.921-.417c.048 1.165.285 1.402.604.605.289-.722.253-1.585-.079-1.917-.332-.332-.568.258-.525 1.312M4.158 108c0 1.375.227 1.938.504 1.25.278-.687.278-1.812 0-2.5-.277-.687-.504-.125-.504 1.25m1.921-.417c.048 1.165.285 1.402.604.605.289-.722.253-1.585-.079-1.917-.332-.332-.568.258-.525 1.312m10 0c.048 1.165.285 1.402.604.605.289-.722.253-1.585-.079-1.917-.332-.332-.568.258-.525 1.312M240.158 111c0 1.375.227 1.938.504 1.25.278-.687.278-1.812 0-2.5-.277-.687-.504-.125-.504 1.25M9.195 112.5c.02 1.65.244 2.204.498 1.231.254-.973.237-2.323-.037-3-.274-.677-.481.119-.461 1.769m-2 1c.02 1.65.244 2.204.498 1.231.254-.973.237-2.323-.037-3-.274-.677-.481.119-.461 1.769M5.232 115c0 1.925.206 2.713.457 1.75.252-.963.252-2.537 0-3.5-.251-.963-.457-.175-.457 1.75m9.926-1c0 1.375.227 1.938.504 1.25.278-.687.278-1.812 0-2.5-.277-.687-.504-.125-.504 1.25m-11.906 2.5c.011 2.2.216 2.982.455 1.738.239-1.244.23-3.044-.02-4s-.446.062-.435 2.262M241.3 122c0 3.025.187 4.263.416 2.75.229-1.513.229-3.987 0-5.5s-.416-.275-.416 2.75m-230.935 6.5c.003 5.5.171 7.622.373 4.716.203-2.905.201-7.405-.004-10-.206-2.594-.371-.216-.369 5.284m-2.016-.5c0 4.675.173 6.588.383 4.25.211-2.338.211-6.163 0-8.5-.21-2.338-.383-.425-.383 4.25m114.523-5.25c-1.243 1.586-1.208 1.621.378.378 1.666-1.307 2.195-2.128 1.372-2.128-.207 0-.995.787-1.75 1.75m29.991-.983c-4.028.233-6.142.884-7.405 2.28-1.237 1.367-3.072 1.953-6.113 1.953-3.678 0-4.345.307-4.345 2 0 1.638.667 2 3.686 2 2.445 0 4.491.757 6.08 2.25 2.205 2.071 3.334 2.25 14.21 2.25 10.214 0 12.099-.258 13.919-1.905 2.562-2.319 2.705-5.686.355-8.379-1.896-2.172-9.465-3.081-20.387-2.449M6.328 128.5c.005 3.85.185 5.302.402 3.228.216-2.075.213-5.225-.008-7-.221-1.776-.398-.078-.394 3.772m7.992-.5c0 3.575.182 5.037.403 3.25.222-1.787.222-4.713 0-6.5-.221-1.787-.403-.325-.403 3.25m111.335-2.171c-.91 1.006-1.655 2.098-1.655 2.428 0 .911 3.026 3.743 4 3.743.471 0 1.564-.707 2.429-1.571.864-.865 1.571-1.958 1.571-2.429 0-1.068-2.871-4-3.916-4-.426 0-1.519.823-2.429 1.829m22.372.639c-1.029 1.239-1.029 1.825 0 3.064 1.025 1.236 3.324 1.478 11.872 1.25 10.566-.281 10.601-.29 10.601-2.782s-.035-2.501-10.601-2.782c-8.548-.228-10.847.014-11.872 1.25m66.473 1.526v2.506l9.199-.533c8.643-.5 11.404-1.197 10.062-2.54-.315-.315-4.778-.88-9.917-1.256l-9.344-.683v2.506M21.429 128c0 1.257 1.726 1.516 10.035 1.509 8.25-.007 10.036-.276 10.036-1.509 0-1.233-1.786-1.502-10.036-1.509-8.309-.007-10.035.252-10.035 1.509m219.871 6c0 3.025.187 4.262.416 2.75.229-1.512.229-3.988 0-5.5s-.416-.275-.416 2.75m-114.55 1.662c.688.278 1.813.278 2.5 0 .688-.277.125-.504-1.25-.504s-1.937.227-1.25.504M3.252 139.5c.011 2.2.216 2.982.455 1.738.239-1.244.23-3.044-.02-4s-.446.062-.435 2.262m1.98 1.5c0 1.925.206 2.713.457 1.75.252-.963.252-2.537 0-3.5-.251-.963-.457-.175-.457 1.75m2 1c0 1.925.206 2.713.457 1.75.252-.963.252-2.537 0-3.5-.251-.963-.457-.175-.457 1.75m7.926 0c0 1.375.227 1.938.504 1.25.278-.687.278-1.812 0-2.5-.277-.687-.504-.125-.504 1.25m-5.963 1.5c.02 1.65.244 2.204.498 1.231.254-.973.237-2.323-.037-3-.274-.677-.481.119-.461 1.769m242.884-.917c.048 1.165.285 1.402.604.605.289-.722.253-1.585-.079-1.917-.332-.332-.568.258-.525 1.312M240.158 145c0 1.375.227 1.938.504 1.25.278-.687.278-1.812 0-2.5-.277-.687-.504-.125-.504 1.25m7.921-.417c.048 1.165.285 1.402.604.605.289-.722.253-1.585-.079-1.917-.332-.332-.568.258-.525 1.312m-2 1c.048 1.165.285 1.402.604.605.289-.722.253-1.585-.079-1.917-.332-.332-.568.258-.525 1.312M4.158 148c0 1.375.227 1.938.504 1.25.278-.687.278-1.812 0-2.5-.277-.687-.504-.125-.504 1.25m2 1c0 1.375.227 1.938.504 1.25.278-.687.278-1.812 0-2.5-.277-.687-.504-.125-.504 1.25m2 0c0 1.375.227 1.938.504 1.25.278-.687.278-1.812 0-2.5-.277-.687-.504-.125-.504 1.25m7.921-.417c.048 1.165.285 1.402.604.605.289-.722.253-1.585-.079-1.917-.332-.332-.568.258-.525 1.312M10.158 150c0 1.375.227 1.938.504 1.25.278-.687.278-1.812 0-2.5-.277-.687-.504-.125-.504 1.25m1.921.583c.048 1.165.285 1.402.604.605.289-.722.253-1.585-.079-1.917-.332-.332-.568.258-.525 1.312m227 0c.048 1.165.285 1.402.604.605.289-.722.253-1.585-.079-1.917-.332-.332-.568.258-.525 1.312m-234 3c.048 1.165.285 1.402.604.605.289-.722.253-1.585-.079-1.917-.332-.332-.568.258-.525 1.312m1.546 1.542c-.834 4.168-.026 4.976.875.875.38-1.729.482-3.351.227-3.606-.255-.255-.751.974-1.102 2.731m10.454-1.542c.048 1.165.285 1.402.604.605.289-.722.253-1.585-.079-1.917-.332-.332-.568.258-.525 1.312m-8 1c.048 1.165.285 1.402.604.605.289-.722.253-1.585-.079-1.917-.332-.332-.568.258-.525 1.312m2 0c.048 1.165.285 1.402.604.605.289-.722.253-1.585-.079-1.917-.332-.332-.568.258-.525 1.312m-3.508 4.988c-.367 1.466-.475 2.858-.24 3.094.236.235.73-.771 1.098-2.236.367-1.466.475-2.858.24-3.094-.236-.235-.73.771-1.098 2.236m2.508-.988c.048 1.165.285 1.402.604.605.289-.722.253-1.585-.079-1.917-.332-.332-.568.258-.525 1.312m2.149 6.027c-.64 2.084-.953 3.999-.696 4.256.258.257.475-.17.483-.949.013-1.196.152-1.202.891-.035 1.289 2.036 2.373-1.954 1.31-4.826-.761-2.057-.918-1.934-1.988 1.554m.851.973c.048 1.165.285 1.402.604.605.289-.722.253-1.585-.079-1.917-.332-.332-.568.258-.525 1.312m8.952 3.917c0 .55.436 1.675.969 2.5.533.825.969 1.05.969.5s-.436-1.675-.969-2.5c-.533-.825-.969-1.05-.969-.5m26.074 2.51c-7.353 4.053-12.265 7.921-11.543 9.09.338.546 4.16-.919 8.768-3.363 6.283-3.331 8.196-4.84 8.283-6.534.063-1.212.063-2.195 0-2.185-.062.01-2.541 1.356-5.508 2.992m155.209-.26c-.342.963-.773 2.037-.957 2.387-.185.35.222.581.904.512.681-.069 4.487 1.555 8.456 3.609 7.164 3.707 7.225 3.718 8.35 1.617.702-1.313.739-1.873.095-1.475-.57.352-4.181-1.393-8.025-3.88-3.843-2.486-7.26-4.52-7.593-4.52-.334 0-.887.787-1.23 1.75m-192.2 1.75c-.024.55.6 2.125 1.386 3.5.865 1.513 1.449 1.908 1.48 1 .045-1.333.158-1.333 1.02 0s.973 1.333 1 0c.027-1.333.138-1.333 1 0s.976 1.333 1.027 0c.031-.825.919.075 1.973 2 2.194 4.008 2.48 5.414.9 4.438-.799-.494-.799-.119 0 1.376 1.364 2.548 1.403 3.491.111 2.693-.587-.363-.721.086-.33 1.105.471 1.226.297 1.492-.611.931-1.001-.618-1.03-.338-.14 1.326.621 1.161 1.623 2.003 2.225 1.871.602-.132 1.322.385 1.6 1.149.353.972.09 1.134-.875.539-1.824-1.124 1.118 3.416 7.231 11.162 9.754 12.359 24.013 24.202 38.889 32.299 6.635 3.612 12.008 5.701 8 3.111-1.333-.862-1.333-.973 0-1 1.333-.027 1.333-.138 0-1s-1.333-.976 0-1.031c.825-.034-.638-1.175-3.25-2.535-4.659-2.425-6.452-4.241-3-3.039 1.459.508 1.427.36-.191-.893-1.202-.93-1.439-1.502-.622-1.502.726 0-2.099-2.231-6.277-4.959-9.784-6.387-22.388-18.401-29.942-28.541-3.278-4.4-6.431-8-7.006-8-.575 0-1.254-.625-1.508-1.389-.287-.861-.023-1.117.697-.672.638.394-.522-2.682-2.577-6.836-2.399-4.846-4.016-7.113-4.515-6.328-.571.898-.787.825-.809-.275-.027-1.333-.138-1.333-1 0s-.973 1.333-1 0c-.027-1.333-.138-1.333-1 0s-.973 1.333-1 0c-.025-1.229-.187-1.254-.894-.137-.729 1.151-.948 1.151-1.406 0-.298-.75-.562-.913-.586-.363m7.934 1.79c-.026.434.794 2.459 1.823 4.5 1.832 3.631 2.07 7.71.684 11.71-.502 1.448-.302 1.346.724-.367 1.266-2.116 1.489-2.181 2.093-.607.371.968.954 1.482 1.294 1.141.34-.34.066-1.285-.61-2.099-.675-.814-.949-1.933-.607-2.486.342-.553-.723-3.61-2.366-6.794-1.643-3.183-3.008-5.433-3.035-4.998m223.576 2.249c-.965 2.514-.681 3.163.498 1.136.584-1.004.851-2.036.593-2.293-.257-.258-.749.263-1.091 1.157m-7.953 4.025c-.938 1.966-1.247 3.292-.688 2.946 1.318-.814 1.29.112-.083 2.676-.861 1.61-.825 1.885.17 1.271.884-.546 1.087-.309.669.78-.85 2.217 2.21 1.605 3.5-.699.783-1.4.719-1.63-.282-1.011-.938.579-1.115.326-.638-.915.391-1.019.257-1.468-.33-1.105-1.38.853-1.175-.558.511-3.507.876-1.532 1.455-1.919 1.495-1 .051 1.152.312 1.076 1.127-.325.584-1.004.795-2.091.47-2.417-.326-.325-.599.046-.607.825-.013 1.167-.187 1.152-.985-.083-.862-1.333-.973-1.333-1 0-.023 1.131-.227 1.191-.828.245-.549-.865-1.327-.144-2.501 2.319M14.035 180.29c-.049 1.109 3.895 8.71 4.521 8.71.283 0 .049-.87-.521-1.934-1.303-2.434-1.319-3.36-.046-2.573.591.365.718-.093.316-1.141-.494-1.287-.791-1.393-1.122-.4-.305.915-.88.577-1.781-1.051-.732-1.32-1.347-2.046-1.367-1.611m221.589 1.249c-.965 2.514-.681 3.163.498 1.136.584-1.004.851-2.036.593-2.293-.257-.258-.749.263-1.091 1.157M226 185c-.589 1.1-.845 2-.57 2s.981-.9 1.57-2c.589-1.1.845-2 .57-2s-.981.9-1.57 2m9.031 1.5c0 .55.436 1.675.969 2.5.533.825.969 1.05.969.5s-.436-1.675-.969-2.5c-.533-.825-.969-1.05-.969-.5m-6.729 2.821c-.37.598-.088.665.713.169.97-.599 1.149-.358.666.898-.432 1.128-.275 1.479.46 1.025.673-.416.934-.138.655.698-.254.764-.95 1.389-1.546 1.389-.596 0-1.458.41-1.917.91-.492.538-.268.583.547.111.943-.547 1.233-.36.916.59-.254.764-.988 1.445-1.629 1.514-.642.069-1.392.238-1.667.375-.275.137-.928.306-1.45.375-.522.069-1.535.778-2.25 1.577-1.122 1.253-1.061 1.27.45.127.963-.728 1.75-.874 1.75-.324 0 1.24-2.506 3.405-3.171 2.74-.268-.268-1.577.749-2.908 2.259L215.5 206.5l2.75-2.424c1.512-1.334 2.75-2.051 2.75-1.595 0 .456.9.014 2-.981s2-1.46 2-1.033c0 .428.744.16 1.654-.595.909-.754 1.809-1.259 2-1.122.19.137.571.194.846.125s.913-.181 1.417-.25 1.291-.535 1.75-1.035c.492-.538.268-.583-.547-.111-.943.547-1.233.36-.916-.59.254-.764.95-1.389 1.546-1.389.596 0 1.458-.41 1.917-.91.494-.54.255-.575-.587-.086-1.067.619-1.256.397-.761-.892.443-1.156.28-1.482-.5-1-.781.483-.944.157-.5-1 .443-1.156.28-1.482-.5-1-.748.462-.955.185-.584-.781.642-1.675-1.937-2.123-2.933-.51m-201.794 2.655c-.655 2.062-.75 2.078-2.065.343-.759-1-1.394-1.283-1.411-.628-.018.655.449 1.488 1.036 1.851.588.363.81 1.334.494 2.157-1.266 3.299 16.06 22.663 29.064 32.484 5.686 4.293 20.249 12.826 21.85 12.802.563-.009.349-.452-.476-.985-1.333-.862-1.333-.972 0-.997.825-.015-.458-1.147-2.852-2.515-4.802-2.745-6.729-3.242-3.707-.956 1.068.807 1.518 1.454 1 1.436-.517-.017-1.76-.652-2.76-1.411-1.736-1.315-1.721-1.41.325-2.059 1.18-.374 1.924-.901 1.655-1.17-.269-.27-1.436.016-2.593.635-1.632.874-2.567.801-4.172-.324l-2.07-1.449 2.219-.704c1.769-.562 1.939-.901.837-1.671-1.139-.797-1.118-.895.118-.558.825.225 1.5 1.01 1.5 1.743 0 .733.625 1.542 1.389 1.796.836.279 1.114.018.698-.655-.454-.735-.074-.904 1.111-.494.991.344-1.541-1.717-5.627-4.579-12.868-9.014-23.487-19.58-31.569-31.411-3.006-4.399-3.371-4.645-3.994-2.681m.374 1.074c-.066.797-.036 2.058.066 2.8.114.828-.287 1.058-1.036.596-3.691-2.281 7.701 11.872 16.252 20.191 9.227 8.977 16.477 14.438 18.261 13.753 2.556-.98 1.023-3.138-6.467-9.1-8.305-6.61-16.095-14.786-22.621-23.74-2.386-3.273-4.39-5.298-4.455-4.5m202.674 2.506c-.944 1.439-1.516 2.818-1.271 3.062.244.244 1.216-.734 2.159-2.174.944-1.439 1.516-2.818 1.271-3.062-.244-.244-1.216.734-2.159 2.174m-202.102.694c.061 2.992 3.464 7.704 11.995 16.612 7.933 8.283 22.454 20.027 20.146 16.293-.392-.635-.207-1.155.411-1.155.619 0-2.167-2.633-6.19-5.85-8.479-6.78-16.872-15.423-22.236-22.9-2.072-2.887-3.859-5.25-3.97-5.25-.112 0-.182 1.012-.156 2.25m191.418-.5c-1.243 1.586-1.208 1.621.378.378 1.666-1.307 2.195-2.128 1.372-2.128-.207 0-.995.787-1.75 1.75M36 195.378c0 .207.788.995 1.75 1.75 1.586 1.243 1.621 1.208.378-.378-1.307-1.666-2.128-2.195-2.128-1.372M28.584 198c3.124 6.399 22.741 26.173 28.916 29.147l2 .963-2-1.581c-12.669-10.017-17.492-14.836-28.048-28.029-.88-1.1-1.271-1.325-.868-.5m197.083-.333c-.367.366-.667 1.131-.667 1.7 0 .626.466.567 1.183-.15.651-.651.951-1.416.667-1.7-.284-.285-.817-.217-1.183.15m-10.262 2.583l-1.905 2.25 2.25-1.905c1.238-1.048 2.25-2.06 2.25-2.25 0-.8-.805-.209-2.595 1.905M39 199.313c0 .172 1.462 1.635 3.25 3.25l3.25 2.937-2.937-3.25c-2.738-3.029-3.563-3.71-3.563-2.937M229.5 202c-.34.55-.297 1.52.095 2.155.473.763.271.88-.595.345-.892-.551-1.068-.42-.554.412.922 1.493 1.837.702 2.24-1.938.326-2.137-.2-2.57-1.186-.974m-147.887 1.183c.233.376-1.16 3.563-3.095 7.083C74.99 216.684 74.133 220 76 220c1.672 0 2.513-.461 2.254-1.237-.135-.406 1.335-3.208 3.266-6.227 1.932-3.02 3.901-6.513 4.376-7.763.771-2.027.563-2.273-1.92-2.273-1.532 0-2.595.307-2.363.683m144.587.017c-.66.66-1.2.815-1.2.345s-.9-.04-2 .955-2 1.437-2 .981c0-.456-1.125.227-2.5 1.519-1.375 1.292-2.5 1.99-2.5 1.552 0-.438-.67-.241-1.489.439-.819.68-1.28 1.574-1.024 1.989.467.755-3.351 4.739-4.092 4.27-.217-.137-.422.088-.456.5-.033.412-1.011 1.762-2.174 3-1.162 1.238-1.74 2.25-1.284 2.25.456 0 .014.9-.981 2s-1.46 2-1.033 2c.428 0 .218.675-.467 1.5-.999 1.204-.986 1.5.069 1.5.794 0 .546.57-.628 1.442-1.893 1.407-1.888 1.438.24 1.292 1.199-.082 1.974-.483 1.722-.891-.53-.858 3.088-3.018 3.823-2.284.269.269 1.025-.156 1.68-.946.922-1.111.92-1.603-.012-2.178-.813-.503-.941-.32-.394.565.55.89.42 1.068-.409.557-.686-.425-2.164.053-3.387 1.095-1.872 1.594-1.984 1.608-.814.098 1.131-1.461 1.133-1.75.01-1.75-.74 0-.299-.733.979-1.628 1.279-.895 1.941-1.908 1.473-2.25-.469-.342 2.41-3.81 6.398-7.706 3.988-3.896 7.25-6.654 7.25-6.128 0 .526.72.359 1.601-.372 2.292-1.902 4.874-2.193 3.369-.38-.628.757-.809 1.916-.402 2.575.5.808.315.935-.568.389-.899-.556-1.069-.42-.542.433 1.219 1.972 2.957-.461 3.182-4.455.221-3.916.212-3.93-1.44-2.278m-55.493.427c-.749.749 1.485 5.28 5.487 11.131 1.603 2.343 2.61 4.75 2.239 5.35-.461.746.006.728 1.472-.057 2.134-1.142 2.122-1.193-1.991-9.1-3.788-7.28-5.506-9.026-7.207-7.324m37.259 5.123l-5.466 5.75 5.75-5.466c3.162-3.006 5.75-5.594 5.75-5.75 0-.742-.956.124-6.034 5.466m15.043-1.261c-.68.819-1.557 1.291-1.949 1.048-.392-.242-3.591 2.463-7.108 6.011-3.517 3.549-6 6.452-5.518 6.452.482 0 .019.965-1.029 2.146-1.887 2.125-1.885 2.135.214 1.035 1.165-.611 2.399-.829 2.743-.485.344.344 1.453-.123 2.463-1.038 1.011-.914 2.057-1.443 2.325-1.175.267.268 2.007-1.081 3.865-2.998 1.857-1.917 2.994-3.485 2.526-3.485-.468 0-.034-.903.965-2.006.998-1.104 1.534-2.288 1.19-2.632-.344-.344-.176-1.466.374-2.493 1.201-2.244.65-2.441-1.061-.38m-8.209 7.644c-3.135 3.282-5.182 5.494-4.55 4.917 2.158-1.97 3.065-1.056 1.191 1.2-1.028 1.238 1.152-.662 4.845-4.221 3.693-3.559 6.714-6.666 6.714-6.905 0-.239-.9.381-2 1.376-2.119 1.918-2.842.742-.8-1.3.66-.66.997-1.163.75-1.117-.247.046-3.015 2.769-6.15 6.05M51 211.313c0 .172 1.462 1.635 3.25 3.25l3.25 2.937-2.937-3.25c-2.738-3.029-3.563-3.71-3.563-2.937m164.437 4.937l-2.937 3.25 3.25-2.937c3.029-2.738 3.71-3.563 2.937-3.563-.172 0-1.635 1.463-3.25 3.25m-89.213 7.594c.42 5.212 1.015 9.729 1.324 10.037 1.483 1.483 2.438-3.191 2.207-10.801-.231-7.639-.442-8.433-2.274-8.565-1.944-.141-1.991.21-1.257 9.329m73.181-7.594l-1.905 2.25 2.25-1.905c1.238-1.048 2.25-2.06 2.25-2.25 0-.8-.805-.209-2.595 1.905m18.032 2l-2.937 3.25 3.25-2.937c3.029-2.738 3.71-3.563 2.937-3.563-.172 0-1.635 1.463-3.25 3.25M58 217.378c0 .207.788.995 1.75 1.75 1.586 1.243 1.621 1.208.378-.378-1.307-1.666-2.128-2.195-2.128-1.372m136.872 2.372c-1.243 1.586-1.208 1.621.378.378 1.666-1.307 2.195-2.128 1.372-2.128-.207 0-.995.787-1.75 1.75m-132.439 1.141c.713 1.154 4.567 3.483 4.567 2.759 0-.231-1.18-1.193-2.623-2.139-1.443-.945-2.318-1.224-1.944-.62m136.008 4.577c-1.067.808-1.434 1.483-.813 1.5.62.018 1.687-.643 2.372-1.468 1.581-1.905.935-1.918-1.559-.032m-14 1.087c-1.864 1.494-1.852 1.512.309.465 1.238-.6 2.25-1.3 2.25-1.555 0-.765-.519-.544-2.559 1.09M73 227.493c0 .677 8.123 4.718 8.575 4.265.21-.209-1.634-1.36-4.097-2.556-2.463-1.197-4.478-1.966-4.478-1.709m121.028 3.056c-1.909 1.348-2.836 2.451-2.059 2.451.978 0 .815.453-.528 1.468-1.067.808-1.491 1.468-.941 1.468.55 0 1.874-.66 2.941-1.468 1.393-1.053 1.534-1.473.5-1.485-.792-.009.022-.953 1.809-2.098s3.25-2.262 3.25-2.483c0-.901-1.686-.173-4.972 2.147M62.5 232c.34.55 1.068 1 1.618 1s.722-.45.382-1c-.34-.55-1.068-1-1.618-1s-.722.45-.382 1m110.5 0c-.825.533-1.05.969-.5.969s1.675-.436 2.5-.969c.825-.533 1.05-.969.5-.969s-1.675.436-2.5.969m-93 4c.825.533 1.95.969 2.5.969s.325-.436-.5-.969c-.825-.533-1.95-.969-2.5-.969s-.325.436.5.969m100.789.151c-1.001.636-.954.83.211.869.908.031.513.615-1 1.48s-1.908 1.449-1 1.48c1.333.045 1.333.158 0 1.02-2.694 1.741.411.965 4-1 1.925-1.054 2.825-1.951 2-1.994-.959-.049-.656-.545.84-1.375 2.329-1.291 2.325-1.298-.711-1.298-1.678 0-3.631.368-4.34.818M172 237c-1.333.862-1.333.973 0 1 1.333.027 1.333.138 0 1s-1.333.973 0 1c1.333.027 1.333.138 0 1s-1.333.973 0 1c1.333.027 1.333.138 0 1s-1.333.973 0 1c1.333.027 1.333.138 0 1-.825.533-1.05.969-.5.969s1.675-.436 2.5-.969c1.333-.862 1.333-.973 0-1-1.333-.027-1.333-.138 0-1s1.333-.973 0-1c-1.333-.027-1.333-.138 0-1s1.333-.973 0-1c-1.333-.027-1.333-.138 0-1s1.333-.973 0-1c-1.333-.027-1.333-.138 0-1 .825-.533 1.05-.969.5-.969s-1.675.436-2.5.969m-101 1c.825.533 1.95.969 2.5.969s.325-.436-.5-.969c-.825-.533-1.95-.969-2.5-.969s-.325.436.5.969m29.813.683c.721.289 1.584.253 1.916-.079.332-.332-.258-.568-1.312-.525-1.165.048-1.402.285-.604.604m53 0c.721.289 1.584.253 1.916-.079.332-.332-.258-.568-1.312-.525-1.165.048-1.402.285-.604.604M181 239c-.825.533-1.05.969-.5.969s1.675-.436 2.5-.969c.825-.533 1.05-.969.5-.969s-1.675.436-2.5.969m-75.187.683c.721.289 1.584.253 1.916-.079.332-.332-.258-.568-1.312-.525-1.165.048-1.402.285-.604.604m44 0c.721.289 1.584.253 1.916-.079.332-.332-.258-.568-1.312-.525-1.165.048-1.402.285-.604.604m-39.063.979c.688.278 1.813.278 2.5 0 .688-.277.125-.504-1.25-.504s-1.937.227-1.25.504m32 0c.688.278 1.813.278 2.5 0 .688-.277.125-.504-1.25-.504s-1.937.227-1.25.504m-20 1.075c2.888.202 7.613.202 10.5 0 2.887-.202.525-.367-5.25-.367s-8.138.165-5.25.367m-38.937.946c.721.289 1.584.253 1.916-.079.332-.332-.258-.568-1.312-.525-1.165.048-1.402.285-.604.604M156.5 243c1.1.473 2.675.859 3.5.859.945 0 .761-.317-.5-.859-1.1-.473-2.675-.859-3.5-.859-.945 0-.761.317.5.859m-56.687 1.683c.721.289 1.584.253 1.916-.079.332-.332-.258-.568-1.312-.525-1.165.048-1.402.285-.604.604m55 0c.721.289 1.584.253 1.916-.079.332-.332-.258-.568-1.312-.525-1.165.048-1.402.285-.604.604m-62 1c.721.289 1.584.253 1.916-.079.332-.332-.258-.568-1.312-.525-1.165.048-1.402.285-.604.604m6.687.789c-5.37 1.77-3.256 1.839 3 .098 2.75-.765 4.1-1.397 3-1.404-1.1-.007-3.8.581-6 1.306m50.25-.81c.688.278 1.813.278 2.5 0 .688-.277.125-.504-1.25-.504s-1.937.227-1.25.504m9.75.338l2 .859-2 .141-2 .141 2 .859c1.1.473 2.675.859 3.5.859.945 0 .761-.317-.5-.859l-2-.859 2-.141 2-.141-2-.859c-1.1-.473-2.675-.859-3.5-.859-.945 0-.761.317.5.859m-49.231.693c.973.254 2.323.237 3-.037.677-.274-.119-.481-1.769-.461-1.65.02-2.204.244-1.231.498m31.814-.321c.23.204 2.667.632 5.417.949 3.372.39 4.186.301 2.5-.272-2.498-.849-8.704-1.38-7.917-.677m12.73.311c.721.289 1.584.253 1.916-.079.332-.332-.258-.568-1.312-.525-1.165.048-1.402.285-.604.604M90.5 248c1.1.473 2.675.859 3.5.859.945 0 .761-.317-.5-.859-1.1-.473-2.675-.859-3.5-.859-.945 0-.761.317.5.859m14.25-.338c.688.278 1.813.278 2.5 0 .688-.277.125-.504-1.25-.504s-1.937.227-1.25.504m17 .078c3.438.196 9.063.196 12.5 0 3.438-.195.625-.355-6.25-.355s-9.687.16-6.25.355m-20.937.943c.721.289 1.584.253 1.916-.079.332-.332-.258-.568-1.312-.525-1.165.048-1.402.285-.604.604m3.687.794c-6.643 1.708-3.683 1.747 4.5.059 3.575-.737 5.15-1.341 3.5-1.342-1.65-.001-5.25.576-8 1.283m37.75-.788c.963.252 2.537.252 3.5 0 .963-.251.175-.457-1.75-.457s-2.713.206-1.75.457M155 249c3.419 1.095 6.048 1.095 3.5 0-1.1-.473-2.9-.846-4-.83-1.608.024-1.51.186.5.83m-58.187.683c.721.289 1.584.253 1.916-.079.332-.332-.258-.568-1.312-.525-1.165.048-1.402.285-.604.604m25.937.054c2.888.202 7.613.202 10.5 0 2.887-.202.525-.367-5.25-.367s-8.138.165-5.25.367m26-.075c.688.278 1.813.278 2.5 0 .688-.277.125-.504-1.25-.504s-1.937.227-1.25.504m-41.25 1.389c-1.973.536-.945.623 3 .257 3.3-.307 6.188-.727 6.417-.933.744-.669-6.332-.161-9.417.676m33.75-.362c.963.252 2.537.252 3.5 0 .963-.251.175-.457-1.75-.457s-2.713.206-1.75.457m12.563-.006c.721.289 1.584.253 1.916-.079.332-.332-.258-.568-1.312-.525-1.165.048-1.402.285-.604.604m-30.563 1.052c2.612.206 6.887.206 9.5 0 2.613-.206.475-.375-4.75-.375s-7.362.169-4.75.375m24.5-.073c.688.278 1.813.278 2.5 0 .688-.277.125-.504-1.25-.504s-1.937.227-1.25.504m-34.988 1.045c1.244.239 3.044.23 4-.02s-.062-.446-2.262-.435c-2.2.011-2.982.216-1.738.455m27 0c1.244.239 3.044.23 4-.02s-.062-.446-2.262-.435c-2.2.011-2.982.216-1.738.455m-15.012 1.016c1.787.222 4.713.222 6.5 0 1.787-.221.325-.403-3.25-.403s-5.037.182-3.25.403" fill="#1976D2" fill-rule="evenodd"/><path fill-opacity=".525" d="M132 1.038c0 2.38 3.334 8.07 5.365 9.158 1.717.918 14.414 3.798 16.766 3.803.594.001 2.869-7.787 2.869-9.82 0-.836-5.771-1.892-20.25-3.706-3.279-.411-4.75-.236-4.75.565m-17.75 1.651c.963.252 2.537.252 3.5 0 .963-.251.175-.457-1.75-.457s-2.713.206-1.75.457m-7.5.973c.688.278 1.813.278 2.5 0 .688-.277.125-.504-1.25-.504s-1.937.227-1.25.504m-4.937 1.021c.721.289 1.584.253 1.916-.079.332-.332-.258-.568-1.312-.525-1.165.048-1.402.285-.604.604m11.437.006c.963.252 2.537.252 3.5 0 .963-.251.175-.457-1.75-.457s-2.713.206-1.75.457m-6.437.994c.721.289 1.584.253 1.916-.079.332-.332-.258-.568-1.312-.525-1.165.048-1.402.285-.604.604m-5 1c.721.289 1.584.253 1.916-.079.332-.332-.258-.568-1.312-.525-1.165.048-1.402.285-.604.604m10.456.01c.973.254 2.323.237 3-.037.677-.274-.119-.481-1.769-.461-1.65.02-2.204.244-1.231.498m51.4 3.963c-.795 2.664-1.158 5.127-.807 5.473.351.346 2.438 1.196 4.638 1.888 2.2.692 6.58 2.549 9.734 4.127l5.733 2.868 2.588-4.099c1.423-2.254 2.368-4.672 2.099-5.371-.462-1.205-15.288-7.91-20.232-9.151-2.049-.514-2.468-.038-3.753 4.265M105.75 7.662c.688.278 1.813.278 2.5 0 .688-.277.125-.504-1.25-.504s-1.937.227-1.25.504m-4.937 1.021c.721.289 1.584.253 1.916-.079.332-.332-.258-.568-1.312-.525-1.165.048-1.402.285-.604.604m10.456.01c.973.254 2.323.237 3-.037.677-.274-.119-.481-1.769-.461-1.65.02-2.204.244-1.231.498m-14.456.99c.721.289 1.584.253 1.916-.079.332-.332-.258-.568-1.312-.525-1.165.048-1.402.285-.604.604m9 0c.721.289 1.584.253 1.916-.079.332-.332-.258-.568-1.312-.525-1.165.048-1.402.285-.604.604M80 11c-.825.533-1.05.969-.5.969s1.675-.436 2.5-.969c.825-.533 1.05-.969.5-.969s-1.675.436-2.5.969m20.813-.317c.721.289 1.584.253 1.916-.079.332-.332-.258-.568-1.312-.525-1.165.048-1.402.285-.604.604m9.937-.021c.688.278 1.813.278 2.5 0 .688-.277.125-.504-1.25-.504s-1.937.227-1.25.504m-5.937 1.021c.721.289 1.584.253 1.916-.079.332-.332-.258-.568-1.312-.525-1.165.048-1.402.285-.604.604m-34.372 3.872c-1.83 1.467-1.798 1.487.559.365 3.061-1.458 3.628-1.92 2.358-1.92-.537 0-1.849.7-2.917 1.555M78 18c-1.333.862-1.333.975 0 1.02.908.031.513.615-1 1.48-1.375.786-2.05 1.429-1.5 1.429 1.716 0 6.131-2.854 4.5-2.909-1.333-.045-1.333-.158 0-1.02.825-.533 1.05-.969.5-.969s-1.675.436-2.5.969m-14.559 1.502c-1.547 1.198-1.594 1.382-.231.909 1.312-.456 1.619-.12 1.319 1.44-.294 1.527.005 1.881 1.204 1.421 1.051-.403 1.351-.217.879.547-.482.78-.156.943 1 .5 1.216-.467 1.491-.294.942.594-.508.822.295.699 2.336-.356 3.293-1.703 4.251-2.932 1.446-1.856-1.111.427-1.426.254-.948-.52.482-.78.156-.943-1-.5-1.157.444-1.483.281-1-.5.482-.78.156-.943-1-.5-1.157.444-1.483.281-1-.5.482-.78.156-.943-1-.5-1.164.447-1.484.283-.993-.511.973-1.574.378-1.473-1.954.332m130.33 2.748c-4.219 6.504-4.463 5.903 5.369 13.245l9.063 6.768 3.571-3.571c3.082-3.081 3.388-3.791 2.237-5.179-1.76-2.12-16.9-13.513-17.958-13.513-.452 0-1.48 1.012-2.282 2.25m-135.91.717c-1.299 1.081-1.968 1.981-1.489 2 .48.018.313.708-.372 1.533s-.91 1.5-.5 1.5c.41 0 .185.675-.5 1.5s-.895 1.5-.467 1.5c.427 0-.038.9-1.033 2-.995 1.1-1.437 2-.981 2 .456 0-.227 1.125-1.519 2.5-1.292 1.375-1.99 2.5-1.552 2.5.438 0 .179.788-.576 1.75-1.248 1.591-1.211 1.624.402.357.976-.765 1.534-1.632 1.241-1.925-.293-.294.449-1.58 1.65-2.858C53.366 36.046 53.99 35 53.552 35c-.438 0-.237-.675.448-1.5 1.756-2.116 3.541-1.878 1.872.25-1.248 1.591-1.211 1.624.402.357.976-.765 1.542-1.624 1.259-1.907-.284-.284.021-1.232.677-2.108 1-1.333.966-1.389-.208-.342-.771.688-1.789 1.25-2.261 1.25-.472 0-.502-.562-.065-1.25.436-.687.8-1.663.809-2.167.008-.504.64-1.125 1.404-1.379.95-.317 1.137-.027.59.916-.472.815-.427 1.039.111.547.5-.459.91-1.321.91-1.917 0-.596.625-1.292 1.389-1.546.95-.317 1.137-.027.59.916-.44.759-.414 1.029.056.601 1.576-1.434 1.358-3.617-.298-2.982-1.032.396-1.319.203-.842-.569 1.063-1.721.138-1.43-2.534.797M67 22.5c1.375.786 2.95 1.429 3.5 1.429.55 0-.125-.643-1.5-1.429s-2.95-1.429-3.5-1.429c-.55 0 .125.643 1.5 1.429M57.5 24c-.34.55-.168 1 .382 1s1.278-.45 1.618-1c.34-.55.168-1-.382-1s-1.278.45-1.618 1m-9.555 6.382c-3.545 2.96-8.692 7.797-11.439 10.75-3.123 3.356-2.177 2.651 2.523-1.882 7.293-7.033 12.267-10.3 6.471-4.25-1.581 1.65-2.481 3-2 3 .481 0-.404 1.334-1.966 2.964-1.562 1.631-3.156 2.77-3.542 2.531-.386-.238-1.732.664-2.992 2.005-1.26 1.341-2.615 2.238-3.012 1.993-.396-.245-1.568.548-2.604 1.763-1.568 1.838-1.59 1.982-.134.854.962-.745 1.75-.996 1.75-.558 0 .438 1.125-.26 2.5-1.552s2.5-1.948 2.5-1.458c0 .489 2.464-1.544 5.475-4.518 3.012-2.974 5.258-5.625 4.991-5.891-.266-.267.498-1.531 1.699-2.809C49.366 32.046 49.99 31 49.552 31c-.438 0-.237-.675.448-1.5s1.695-1.5 2.245-1.5c.558 0 .449.663-.245 1.5-.685.825-.886 1.5-.448 1.5s-.26 1.125-1.552 2.5-1.946 2.5-1.453 2.5c.492 0-1.982 2.903-5.499 6.452-3.517 3.548-6.707 6.259-7.088 6.023-.381-.235-1.488.451-2.46 1.525-.972 1.074-2.126 1.731-2.565 1.46-.438-.271-1.084-.028-1.435.54-.351.568-1.006.805-1.456.527-.449-.278-1.431.278-2.181 1.234-1.233 1.574-1.197 1.609.387.367.962-.755 1.75-1.038 1.75-.628 0 .41.675.185 1.5-.5s1.5-.895 1.5-.467c0 .427.9-.038 2-1.033 1.1-.995 2-1.431 2-.968 0 .463 1.269-.373 2.819-1.859 1.551-1.486 3.046-2.474 3.323-2.197.277.277 1.793-.842 3.368-2.486C46.085 42.345 46.981 41 46.5 41c-.481 0 .419-1.35 2-3s2.495-3 2.032-3c-.463 0-.027-.9.968-2s1.46-2 1.033-2c-.428 0-.218-.675.467-1.5s.91-1.5.5-1.5c-.41 0-.185-.675.5-1.5 2.25-2.711.484-1.579-6.055 3.882m15.93-4.882c-.069.275-.181 1.025-.25 1.667-.069.641-.75 1.375-1.514 1.629-.926.309-1.125.035-.596-.821.536-.867.397-1.039-.427-.529-.672.415-.97 1.005-.663 1.312.307.307-.001 1.238-.684 2.07-.682.832.672.251 3.009-1.291 4.488-2.96 5.338-3.892 2.586-2.836-1.119.43-1.427.256-.941-.531.398-.644.471-1.17.164-1.17-.307 0-.615.225-.684.5m63.461 6.5c0 4.125.177 5.813.392 3.75.216-2.062.216-5.437 0-7.5-.215-2.062-.392-.375-.392 3.75m-51.58 5.664c.691.279.959.988.596 1.576-.394.637-.188.777.51.345 1.377-.85.55-2.62-1.171-2.506-.852.056-.834.223.065.585M179.5 38c.34.55.816 1 1.059 1s.441-.45.441-1-.477-1-1.059-1-.781.45-.441 1m-1.897 1.833c-.283.459.12.834.897.834s1.18-.375.897-.834c-.283-.458-.687-.833-.897-.833-.21 0-.614.375-.897.833m-100 1c-.283.459.12.834.897.834s1.18-.375.897-.834c-.283-.458-.687-.833-.897-.833-.21 0-.614.375-.897.833M42.924 43.75L40.5 46.5l2.75-2.424c1.513-1.334 2.75-2.571 2.75-2.75 0-.785-.81-.146-3.076 2.424m174.14.684c-3.319 3.425-3.323 3.439-1.446 5.836 1.035 1.321 4.066 5.288 6.735 8.816 2.669 3.528 5.144 6.406 5.5 6.397.356-.01 2.576-1.04 4.934-2.289l4.286-2.272-4.14-5.902C227.961 47.931 222.12 41 221.118 41c-.399 0-2.223 1.545-4.054 3.434M37.521 50.976c-.983 1.087-2.127 1.767-2.541 1.511-.415-.256-1.305.2-1.98 1.013s-1.595 1.251-2.044.973c-.45-.278-1.105-.041-1.456.527-.351.568-1.026.793-1.5.5-.474-.293-1.149-.068-1.5.5-.351.568-1.026.793-1.5.5-.474-.293-1.12-.115-1.436.396-.66 1.068 1.338.922 3.186-.233.688-.43 1.25-.474 1.25-.1 0 .375.675.122 1.5-.563.825-.685 1.5-.895 1.5-.467 0 .427.824.031 1.831-.88 1.007-.912 2.056-1.433 2.33-1.159s1.553-.625 2.843-1.998C39.293 50.123 40.115 49 39.829 49c-.285 0-1.324.889-2.308 1.976m135.038.556c-1.068.807-1.46 1.468-.873 1.468.588 0 1.629-.675 2.314-1.5 1.557-1.876 1.067-1.866-1.441.032m-89.826.592c.679.684 1.486.991 1.793.683.308-.308-.247-.867-1.233-1.243-1.425-.542-1.54-.428-.56.56M32.872 56.75c-1.243 1.586-1.208 1.621.378.378.962-.755 1.75-1.543 1.75-1.75 0-.823-.821-.294-2.128 1.372m-11.57 3.571c-.37.598-.088.665.713.169.945-.584 1.153-.37.724.747-.635 1.656 1.548 1.874 2.982.298.429-.471.142-.486-.641-.031-1.023.594-1.259.406-.845-.673.642-1.675-1.937-2.123-2.933-.51m9.188-.305c-.346.559-1.016.777-1.49.484-.474-.293-1.12-.115-1.436.396-.811 1.313 2.212.728 3.646-.706.655-.655.902-1.19.549-1.19s-.924.457-1.269 1.016m93.165.813C122.217 62.418 122 65.644 122 85.434v22.777l2.5 2.971c1.419 1.687 2.5 4.236 2.5 5.895 0 1.932.509 2.923 1.5 2.923 1.073 0 1.5-1.094 1.5-3.845 0-2.575.661-4.443 2-5.655 1.888-1.708 2-3.08 2-24.432 0-18.857-.259-22.993-1.557-24.845-1.922-2.745-6.476-2.949-8.788-.394m2.012 1.838c-1.269 1.269-.766 44.834.533 46.133 1.581 1.581 2.343 1.515 4.229-.371 1.329-1.33 1.571-4.835 1.571-22.8 0-15.178-.342-21.571-1.2-22.429-1.307-1.307-4.072-1.595-5.133-.533m109.652 7.935l-4.18 2.519 1.808 3.19c.994 1.754 3.055 6.443 4.581 10.42 2.62 6.831 2.917 7.197 5.373 6.604 6.501-1.57 7.344-2.218 6.636-5.1-1.101-4.481-7.957-19.549-9.037-19.862-.55-.16-2.881.843-5.181 2.229M37 76.059c0 .582.45.781 1 .441s1-.816 1-1.059S38.55 75 38 75s-1 .477-1 1.059m181 0c0 .582-.52.738-1.155.346-.731-.453-.882-.274-.41.489.569.921 1.074.929 2.154.032C220.254 75.544 220.371 75 219 75c-.55 0-1 .477-1 1.059m-178.457.872c-.317.512-.193 1.167.274 1.456.467.289.85-.13.85-.931 0-1.686-.316-1.833-1.124-.525m174.79 1.525c0 .801.383 1.22.85.931.467-.289.591-.944.274-1.456-.808-1.308-1.124-1.161-1.124.525M51.564 83.293c.376.986.935 1.541 1.243 1.233.308-.307.001-1.114-.683-1.793-.988-.98-1.102-.865-.56.56m151.895-.226c-.363.586-.445 1.281-.183 1.543s.743-.218 1.069-1.067c.676-1.762.1-2.072-.886-.476m42.77 17.2c-3.192.767-4.154 1.431-3.807 2.629.255.882.766 3.854 1.136 6.604.906 6.745 2.897 10.747 6.362 12.794 5.342 3.155 6.306 2.46 5.601-4.044-1.223-11.289-2.858-19.248-3.931-19.13-.6.066-3.012.582-5.361 1.147M145.405 124.5c-1.762 1.634-3.859 2.5-6.051 2.5-1.845 0-3.354.45-3.354 1s1.315 1 2.923 1c1.659 0 4.208 1.081 5.895 2.5 2.776 2.336 3.695 2.5 13.995 2.5 12.618 0 13.984-.337 15.29-3.771 1.162-3.057-1.387-7.718-3.729-6.819-.832.319-1.211.135-.867-.421.389-.629-3.398-.989-10.396-.989-10.356 0-11.168.148-13.706 2.5m-20.016 1.93c-.996 2.595.399 4.739 2.857 4.39 1.652-.235 2.254-.987 2.254-2.82 0-1.833-.602-2.585-2.254-2.82-1.353-.192-2.496.308-2.857 1.25m21.973.07c-1.481 3.858.157 4.5 11.484 4.5 8.477 0 11.187-.334 12.154-1.5.993-1.197.993-1.803 0-3-.967-1.166-3.677-1.5-12.154-1.5-8.774 0-11.021.294-11.484 1.5M23 128.218c0 .43 1.125.782 2.5.782s2.5-.445 2.5-.989-1.125-.895-2.5-.782c-1.375.114-2.5.559-2.5.989M228.5 128c2.791 1.199 5.741 1.199 5 0-.34-.55-2.054-.968-3.809-.93-2.69.06-2.877.206-1.191.93m19.579 8.583c.048 1.165.285 1.402.604.605.289-.722.253-1.585-.079-1.917-.332-.332-.568.258-.525 1.312m3.079 6.417c0 1.375.227 1.938.504 1.25.278-.687.278-1.812 0-2.5-.277-.687-.504-.125-.504 1.25m1.921-.417c.048 1.165.285 1.402.604.605.289-.722.253-1.585-.079-1.917-.332-.332-.568.258-.525 1.312M51.564 172.707c-.542 1.425-.428 1.54.56.56.684-.679.991-1.486.683-1.793-.308-.308-.867.247-1.243 1.233M203 171.941c0 .518.445 1.216.989 1.552.566.35.734-.051.393-.941-.665-1.732-1.382-2.049-1.382-.611M37 180c0 .55.477 1 1.059 1s.781-.45.441-1-.816-1-1.059-1-.441.45-.441 1m180.603-.167c-.283.459.12.834.897.834s1.18-.375.897-.834c-.283-.458-.687-.833-.897-.833-.21 0-.614.375-.897.833m17.541 2.917c-1.091 2.55-1.066 2.609.34.809.834-1.068 1.516-2.305 1.516-2.75 0-1.52-.678-.81-1.856 1.941m-8.693 11.329c-.253.41.204.648 1.015.529 2.09-.307 2.841-1.275.99-1.275-.849 0-1.751.336-2.005.746m6 1c-.253.41.204.648 1.015.529 2.09-.307 2.841-1.275.99-1.275-.849 0-1.751.336-2.005.746m-2 3c-.253.41.204.648 1.015.529 2.09-.307 2.841-1.275.99-1.275-.849 0-1.751.336-2.005.746m-5.961 1.937c-.346.559-.987.795-1.425.524-.439-.271-1.645.509-2.681 1.734-1.879 2.22-1.879 2.221.197.474 1.145-.964 2.318-1.516 2.608-1.226.289.289 1.095-.16 1.791-.998s1.011-1.524.701-1.524c-.309 0-.846.457-1.191 1.016m0 3c-.346.559-.987.795-1.425.524-.439-.271-1.593.386-2.565 1.46-.972 1.074-2.08 1.76-2.462 1.524-.382-.236-3.345 2.249-6.585 5.523-3.24 3.274-5.497 5.953-5.017 5.953.481 0 .017 1.012-1.031 2.25l-1.905 2.25 2.226-1.884c1.225-1.036 2.033-2.197 1.797-2.579-.237-.383 2.024-3.12 5.023-6.083 3-2.962 5.454-4.985 5.454-4.496 0 .49 1.046-.092 2.324-1.293 1.278-1.201 2.564-1.943 2.858-1.65.293.293 1.102-.153 1.798-.991s1.011-1.524.701-1.524c-.309 0-.846.457-1.191 1.016m-141.983.973c-.35.566.051.734.941.393 1.732-.665 2.049-1.382.611-1.382-.518 0-1.216.445-1.552.989m88.493-.596c0 .216.698.661 1.552.989.89.341 1.291.173.941-.393-.587-.951-2.493-1.406-2.493-.596m56.872 1.357c-1.243 1.586-1.208 1.621.378.378 1.666-1.307 2.195-2.128 1.372-2.128-.207 0-.995.787-1.75 1.75m-4 2c-1.243 1.586-1.208 1.621.378.378 1.666-1.307 2.195-2.128 1.372-2.128-.207 0-.995.787-1.75 1.75m-4.843 2.719c-1.276 1.358-2.639 2.272-3.029 2.031-.39-.241-1.753.673-3.029 2.031S211.039 216 211.513 216s-.432 1.35-2.013 3-2.666 3-2.412 3 3.815-3.375 7.912-7.5c4.097-4.125 7.202-7.5 6.899-7.5-.303 0-1.594 1.111-2.87 2.469m4.98.02c-.68.819-1.558 1.29-1.952 1.046-.394-.243-3.156 2.124-6.137 5.261l-5.42 5.703 5.059-4.774c2.782-2.625 5.293-4.539 5.579-4.253.287.286 1.576-.603 2.866-1.976 1.289-1.373 2.096-2.496 1.793-2.496-.304 0-1.108.67-1.788 1.489m-10.604 4.761l-1.905 2.25 2.25-1.905c2.114-1.79 2.705-2.595 1.905-2.595-.19 0-1.202 1.012-2.25 2.25m-135.792.933c.289.467.944.591 1.456.274 1.308-.808 1.161-1.124-.525-1.124-.801 0-1.22.383-.931.85m-1.261 1.577c.363.588.095 1.297-.596 1.576-.899.362-.917.529-.065.585 1.721.114 2.548-1.656 1.171-2.506-.698-.432-.904-.292-.51.345m103.191 1.171c-.317.512-.193 1.167.274 1.456.467.289.85-.13.85-.931 0-1.686-.316-1.833-1.124-.525m22.329 2.819c-1.243 1.586-1.208 1.621.378.378 1.666-1.307 2.195-2.128 1.372-2.128-.207 0-.995.787-1.75 1.75m7.533 3.5l-1.905 2.25 2.25-1.905c2.114-1.79 2.705-2.595 1.905-2.595-.19 0-1.202 1.012-2.25 2.25m-9.533.5c-1.243 1.586-1.208 1.621.378.378 1.666-1.307 2.195-2.128 1.372-2.128-.207 0-.995.787-1.75 1.75m3 0c-1.243 1.586-1.208 1.621.378.378 1.666-1.307 2.195-2.128 1.372-2.128-.207 0-.995.787-1.75 1.75m3 0c-1.243 1.586-1.208 1.621.378.378 1.666-1.307 2.195-2.128 1.372-2.128-.207 0-.995.787-1.75 1.75M127 229c0 2.2.349 4 .776 4 .427 0 .605-1.8.395-4-.209-2.2-.559-4-.776-4-.217 0-.395 1.8-.395 4" fill="#1976D2" fill-rule="evenodd"/></svg>