<svg xmlns="http://www.w3.org/2000/svg" viewBox="0 0 1387.8 1687.78"><defs><style>.cls-1,.cls-4,.cls-6{fill:#fff;}.cls-1,.cls-5,.cls-6,.cls-3{stroke:#f05a28;}.cls-1,.cls-5,.cls-6,.cls-3,.cls-8{stroke-miterlimit:10;}.cls-1,.cls-8{stroke-width:4px;}.cls-2{opacity:0.3;}.cls-3,.cls-3{fill:#f05a28;}.cls-5,.cls-8{fill:none;}.cls-5,.cls-6,.cls-3{stroke-width:3px;}.cls-8{stroke:#fff;}</style></defs><title>Clocker_1</title><g id="Layer_2" data-name="Layer 2"><g id="Layer_1-2" data-name="Layer 1"><circle class="cls-1" cx="694.05" cy="693.75" r="616.25" transform="translate(-287.28 693.96) rotate(-45)"/><g class="cls-2"><path class="cls-3" d="M607.9,988.54a14.82,14.82,0,0,1-14.81-14.8V629.14a101,101,0,0,1,201.91,0,14.81,14.81,0,1,1-29.61,0,71.34,71.34,0,0,0-142.68,0v344.6A14.83,14.83,0,0,1,607.9,988.54Z"/><path class="cls-3" d="M694.05,837.78A14.82,14.82,0,0,1,679.24,823V629.14a14.81,14.81,0,0,1,29.61,0V823A14.82,14.82,0,0,1,694.05,837.78Z"/><path class="cls-3" d="M694.05,1031.62a14.82,14.82,0,0,1-14.81-14.81V909.13a14.81,14.81,0,1,1,29.61,0v107.68A14.82,14.82,0,0,1,694.05,1031.62Z"/><path class="cls-3" d="M780.2,988.54a14.82,14.82,0,0,1-14.81-14.8V715.29a14.81,14.81,0,1,1,29.61,0V973.74A14.82,14.82,0,0,1,780.2,988.54Z"/><path class="cls-3" d="M521.75,923.93a14.83,14.83,0,0,1-14.81-14.8V758.37a14.81,14.81,0,1,1,29.62,0V909.13A14.82,14.82,0,0,1,521.75,923.93Z"/><path class="cls-3" d="M952.49,837.78a14.82,14.82,0,0,1-14.8-14.8V715.29a14.81,14.81,0,1,1,29.61,0V823A14.82,14.82,0,0,1,952.49,837.78Z"/><path class="cls-3" d="M866.34,923.93a14.82,14.82,0,0,1-14.8-14.8v-280a156.57,156.57,0,0,0-11.43-59A14.81,14.81,0,1,1,867.57,559a186.06,186.06,0,0,1,13.58,70.11v280A14.82,14.82,0,0,1,866.34,923.93Z"/><path class="cls-3" d="M521.75,687a14.83,14.83,0,0,1-14.81-14.8V629.14C506.94,526,590.88,442,694.05,442a187.55,187.55,0,0,1,117.07,41.14A14.84,14.84,0,0,1,813.38,504a14.69,14.69,0,0,1-11.53,5.53h0a14.74,14.74,0,0,1-9.29-3.27,155.64,155.64,0,0,0-98.5-34.61c-86.84,0-157.49,70.65-157.49,157.49v43.08A14.82,14.82,0,0,1,521.75,687Z"/><path class="cls-3" d="M952.49,644a14.82,14.82,0,0,1-14.8-14.81c0-134.34-109.3-243.64-243.64-243.64a241.78,241.78,0,0,0-97.53,20.31,14.9,14.9,0,0,1-5.89,1.22h0A14.87,14.87,0,0,1,577,398.15a14.82,14.82,0,0,1,7.65-19.49,271.6,271.6,0,0,1,109.39-22.77c150.67,0,273.25,122.58,273.25,273.25A14.82,14.82,0,0,1,952.49,644Z"/><path class="cls-3" d="M435.6,837.78A14.82,14.82,0,0,1,420.8,823V629.14A272.79,272.79,0,0,1,490.38,447a14.8,14.8,0,1,1,22.06,19.75,243.19,243.19,0,0,0-62,162.42V823A14.82,14.82,0,0,1,435.6,837.78Z"/></g><path class="cls-3" d="M694.05,316.59h0a34.84,34.84,0,0,0-34.85,34.84V575.84a34.78,34.78,0,0,0,15.27,28.81,23.72,23.72,0,0,1,10.16,19.68v71a9.42,9.42,0,0,0,9.42,9.42h0a9.41,9.41,0,0,0,9.41-9.42v-71a23.74,23.74,0,0,1,10.16-19.68,34.76,34.76,0,0,0,15.27-28.81V351.43A34.84,34.84,0,0,0,694.05,316.59Zm16,259.25a16,16,0,0,1-17.51,15.94A16.25,16.25,0,0,1,678,575.46V351.81a16.25,16.25,0,0,1,14.52-16.32,16,16,0,0,1,17.51,15.94Z"/><path class="cls-3" d="M947.7,693.75h0a34.84,34.84,0,0,0-34.85-34.84h-99.8a34.8,34.8,0,0,0-30,17.13,17,17,0,0,1-14.6,8.3H693.52a9.41,9.41,0,0,0-9.41,9.41h0a9.41,9.41,0,0,0,9.41,9.42h74.93a16.94,16.94,0,0,1,14.6,8.3,34.8,34.8,0,0,0,30,17.13h99.8A34.85,34.85,0,0,0,947.7,693.75Zm-134.65,16a16,16,0,0,1-16-16.6,16.29,16.29,0,0,1,16.43-15.43h98.36a16,16,0,0,1,16,16h0a16,16,0,0,1-16,16Z"/><circle class="cls-4" cx="694.05" cy="693.75" r="40.42"/><circle class="cls-5" cx="694.05" cy="693.75" r="40.42"/><circle class="cls-3" cx="694.05" cy="693.75" r="19.63"/><path class="cls-6" d="M680.32,124.4l-2.07,27.94q-1.46,19.42-1.45,38.93v23.36a17.5,17.5,0,0,0,17.5,17.5h0a17.51,17.51,0,0,0,17.5-17.5V191.27q0-19.49-1.45-38.93l-2.07-27.94a14,14,0,0,0-14-13h0A14,14,0,0,0,680.32,124.4Z"/><path class="cls-3" d="M694.3,224.5a9.88,9.88,0,0,1-9.87-9.87V191.27c0-12.75.48-25.66,1.42-38.37L687.93,125a6.39,6.39,0,0,1,12.74,0l2.08,27.93c.94,12.71,1.42,25.62,1.42,38.37v23.36A9.88,9.88,0,0,1,694.3,224.5Z"/><path class="cls-6" d="M397.86,207.64,410,232.87q8.46,17.56,18.21,34.44l11.68,20.23A17.51,17.51,0,0,0,463.83,294h0a17.51,17.51,0,0,0,6.4-23.91l-11.68-20.23q-9.74-16.87-20.72-33l-15.76-23.16a14,14,0,0,0-18.6-4.25h0A14,14,0,0,0,397.86,207.64Z"/><path class="cls-3" d="M460,287.34a9.88,9.88,0,0,1-13.48-3.61L434.85,263.5c-6.38-11-12.42-22.46-18-33.94l-12.17-25.23a6.39,6.39,0,0,1,11-6.37l15.77,23.15c7.17,10.54,14,21.48,20.42,32.52l11.68,20.23A9.88,9.88,0,0,1,460,287.34Z"/><path class="cls-6" d="M194.21,421.34l23.16,15.76q16.09,11,33,20.72l20.23,11.68a17.49,17.49,0,0,0,23.9-6.4h0a17.5,17.5,0,0,0-6.4-23.91l-20.23-11.68Q251,417.78,233.42,409.3l-25.23-12.17A14,14,0,0,0,190,402.74h0A14,14,0,0,0,194.21,421.34Z"/><path class="cls-3" d="M287.89,459.28a9.89,9.89,0,0,1-13.49,3.62l-20.23-11.69c-11-6.37-22-13.24-32.51-20.41L198.5,415a6.39,6.39,0,0,1,6.37-11l25.24,12.17C241.59,421.7,253,427.74,264,434.12l20.23,11.68A9.88,9.88,0,0,1,287.89,459.28Z"/><path class="cls-6" d="M124.69,707.48l27.94,2.08Q172.06,711,191.56,711h23.36a17.49,17.49,0,0,0,17.5-17.5h0a17.5,17.5,0,0,0-17.5-17.5H191.56q-19.49,0-38.93,1.45l-27.94,2.07a14,14,0,0,0-13,14h0A14,14,0,0,0,124.69,707.48Z"/><path class="cls-3" d="M224.79,693.5a9.88,9.88,0,0,1-9.87,9.87H191.56c-12.75,0-25.65-.48-38.36-1.42l-27.94-2.08a6.39,6.39,0,0,1,0-12.74l27.94-2.08c12.71-.94,25.61-1.42,38.36-1.42h23.36A9.88,9.88,0,0,1,224.79,693.5Z"/><path class="cls-6" d="M207.94,989.94l25.23-12.17q17.55-8.46,34.44-18.21l20.23-11.68a17.49,17.49,0,0,0,6.4-23.9h0a17.5,17.5,0,0,0-23.9-6.41l-20.23,11.68q-16.87,9.75-33,20.72L194,965.73a14,14,0,0,0-4.25,18.6h0A14,14,0,0,0,207.94,989.94Z"/><path class="cls-3" d="M287.64,927.79A9.88,9.88,0,0,1,284,941.27L263.79,953c-11,6.37-22.46,12.41-33.94,17.94l-25.23,12.17a6.39,6.39,0,0,1-6.37-11l23.16-15.77c10.53-7.17,21.47-14,32.51-20.41l20.23-11.68A9.89,9.89,0,0,1,287.64,927.79Z"/><path class="cls-6" d="M421.63,1193.59l15.77-23.15q11-16.11,20.71-33l11.68-20.23a17.48,17.48,0,0,0-6.4-23.9h0a17.51,17.51,0,0,0-23.91,6.4l-11.68,20.23q-9.74,16.88-18.21,34.44l-12.17,25.23a14,14,0,0,0,5.62,18.23h0A14,14,0,0,0,421.63,1193.59Z"/><path class="cls-3" d="M459.58,1099.91a9.9,9.9,0,0,1,3.61,13.49l-11.68,20.23c-6.38,11-13.24,22-20.42,32.51l-15.77,23.16a6.39,6.39,0,0,1-11-6.37l12.17-25.24c5.54-11.47,11.58-22.89,18-33.93l11.68-20.23A9.89,9.89,0,0,1,459.58,1099.91Z"/><path class="cls-6" d="M707.77,1263.11l2.08-27.94q1.44-19.43,1.45-38.93v-23.36a17.51,17.51,0,0,0-17.5-17.5h0a17.5,17.5,0,0,0-17.5,17.5v23.36q0,19.48,1.44,38.93l2.08,27.94a14,14,0,0,0,14,13h0A14,14,0,0,0,707.77,1263.11Z"/><path class="cls-3" d="M693.8,1163a9.88,9.88,0,0,1,9.87,9.87v23.36c0,12.75-.48,25.66-1.43,38.37l-2.07,27.93a6.39,6.39,0,0,1-12.75,0l-2.07-27.93c-1-12.71-1.43-25.62-1.43-38.37v-23.36A9.89,9.89,0,0,1,693.8,1163Z"/><path class="cls-6" d="M990.24,1179.87l-12.17-25.24q-8.48-17.55-18.22-34.43L948.17,1100a17.5,17.5,0,0,0-23.9-6.41h0a17.51,17.51,0,0,0-6.41,23.91l11.68,20.23q9.75,16.88,20.72,33L966,1193.84a14,14,0,0,0,18.59,4.25h0A14,14,0,0,0,990.24,1179.87Z"/><path class="cls-3" d="M928.08,1100.17a9.88,9.88,0,0,1,13.49,3.61L953.25,1124c6.37,11,12.41,22.46,18,33.94l12.17,25.23a6.39,6.39,0,0,1-11,6.37l-15.76-23.15c-7.18-10.54-14.05-21.48-20.42-32.52l-11.68-20.23A9.88,9.88,0,0,1,928.08,1100.17Z"/><path class="cls-6" d="M1193.89,966.17l-23.16-15.77q-16.11-11-33-20.71L1117.51,918a17.5,17.5,0,0,0-23.91,6.4h0a17.51,17.51,0,0,0,6.41,23.91L1120.24,960q16.88,9.74,34.43,18.21l25.24,12.17a14,14,0,0,0,18.22-5.61h0A14,14,0,0,0,1193.89,966.17Z"/><path class="cls-3" d="M1100.21,928.23a9.88,9.88,0,0,1,13.48-3.62l20.23,11.68c11,6.38,22,13.25,32.52,20.42l23.15,15.77a6.39,6.39,0,0,1-6.37,11L1158,971.34c-11.48-5.54-22.9-11.57-33.94-18l-20.23-11.68A9.88,9.88,0,0,1,1100.21,928.23Z"/><path class="cls-6" d="M1263.4,680,1235.46,678q-19.43-1.44-38.93-1.44h-23.36a17.5,17.5,0,0,0-17.5,17.5h0a17.51,17.51,0,0,0,17.5,17.5h23.36q19.48,0,38.93-1.45L1263.4,708a14,14,0,0,0,13-14h0A14,14,0,0,0,1263.4,680Z"/><path class="cls-3" d="M1163.3,694a9.89,9.89,0,0,1,9.87-9.88h23.36c12.75,0,25.66.48,38.37,1.43l27.94,2.08a6.39,6.39,0,0,1,0,12.74l-27.94,2.07c-12.71.95-25.62,1.43-38.37,1.43h-23.36A9.88,9.88,0,0,1,1163.3,694Z"/><path class="cls-6" d="M1180.16,397.56l-25.23,12.17q-17.55,8.47-34.44,18.22l-20.23,11.68a17.5,17.5,0,0,0-6.41,23.9h0a17.51,17.51,0,0,0,23.91,6.41L1138,458.26q16.88-9.75,33-20.72l23.16-15.77a14,14,0,0,0,4.25-18.59h0A14,14,0,0,0,1180.16,397.56Z"/><path class="cls-3" d="M1100.46,459.72a9.89,9.89,0,0,1,3.61-13.49l20.23-11.68c11-6.37,22.46-12.41,33.94-17.95l25.23-12.17a6.39,6.39,0,0,1,6.37,11l-23.15,15.77c-10.54,7.17-21.48,14-32.51,20.41l-20.24,11.68A9.88,9.88,0,0,1,1100.46,459.72Z"/><path class="cls-6" d="M966.46,193.92,950.7,217.07q-11,16.11-20.72,33L918.3,270.3a17.5,17.5,0,0,0,6.41,23.9h0a17.49,17.49,0,0,0,23.9-6.4l11.68-20.24q9.75-16.87,18.22-34.43l12.16-25.24a14,14,0,0,0-5.61-18.22h0A14,14,0,0,0,966.46,193.92Z"/><path class="cls-3" d="M928.52,287.59a9.88,9.88,0,0,1-3.61-13.48l11.68-20.23c6.37-11,13.24-22,20.41-32.51l15.77-23.16a6.39,6.39,0,0,1,11,6.37l-12.17,25.23c-5.53,11.48-11.57,22.9-17.94,33.94L942,284A9.88,9.88,0,0,1,928.52,287.59Z"/><path class="cls-3" d="M1023.67,82.83A689.63,689.63,0,0,0,893,28.66a.07.07,0,0,0-.09.05L877.13,87.77a628.59,628.59,0,0,1,115.87,48,.08.08,0,0,0,.1,0Z"/><path class="cls-3" d="M1369.48,533.48l-59.12,15.84a628.37,628.37,0,0,1,11.81,66.56,66.05,66.05,0,0,0,65.63,57.87h0A694.36,694.36,0,0,0,1369.48,533.48Z"/><path class="cls-3" d="M854.32,18.32A694.27,694.27,0,0,0,714.05,0h0a66.06,66.06,0,0,0,57.87,65.63,630.92,630.92,0,0,1,66.56,11.81Z"/><path class="cls-3" d="M1284.93,329.51A696.56,696.56,0,0,0,1198.8,217.4a.08.08,0,0,0-.11,0l-43.22,43.21a635.79,635.79,0,0,1,71.62,91.84,9.51,9.51,0,0,0,12.75,3.1Z"/><path class="cls-3" d="M1170.46,189.06a697.31,697.31,0,0,0-112.16-86.19h0l-30.6,53a635.25,635.25,0,0,1,99.49,76.45h0Z"/><path class="cls-3" d="M1359.16,494.83A689.68,689.68,0,0,0,1305,364.13l-53,30.61a628,628,0,0,1,48,115.68.3.3,0,0,0,.34.19Z"/><path class="cls-3" d="M236.35,236.35a647.07,647.07,0,1,0,1053.8,709.41,640.93,640.93,0,0,0,49.59-211.44,66.09,66.09,0,0,0-6.65,8.32A640.42,640.42,0,0,1,693.9,1334.9,641.19,641.19,0,0,1,444.41,103.25,634.71,634.71,0,0,1,645.16,54.72a67.07,67.07,0,0,0,8.32-6.66A644.65,644.65,0,0,0,236.35,236.35Z"/><path class="cls-3" d="M616,65.65a66.35,66.35,0,0,0,21.1-6.26A636.4,636.4,0,0,0,56.91,693.9,637.18,637.18,0,0,0,1280.86,941.83a630.42,630.42,0,0,0,47.56-191.15,66.37,66.37,0,0,0-6.27,21.1c-38.45,312.72-305,554.85-628.1,554.85-349.39,0-632.89-283.49-632.88-632.88C61.17,370.64,303.31,104.1,616,65.65Z"/><path class="cls-3" d="M229.22,229.22A657.16,657.16,0,1,0,1299.43,949.68a651.36,651.36,0,0,0,50.89-224.41,67.53,67.53,0,0,0-6.34,5A650.5,650.5,0,0,1,693.9,1345,651.26,651.26,0,0,1,440.49,94,645.32,645.32,0,0,1,657.57,43.82a67.53,67.53,0,0,0,5-6.34A654.78,654.78,0,0,0,229.22,229.22Z"/><path class="cls-3" d="M222.09,222.09A667.24,667.24,0,1,0,1308.72,953.61a661.73,661.73,0,0,0,51.94-234.15,66.37,66.37,0,0,0-6.22,3.21A660.93,660.93,0,0,1,226.39,1161.41a660.92,660.92,0,0,1,438.74-1128,67.8,67.8,0,0,0,3.21-6.23,664.86,664.86,0,0,0-446.25,195Z"/><path class="cls-3" d="M207.84,207.84A687.4,687.4,0,1,0,1327.29,961.46,682,682,0,0,0,1381,714.07q-3.09.3-6.11.89A681.09,681.09,0,0,1,212.14,1175.67,681.09,681.09,0,0,1,672.84,12.91c.39-2,.69-4,.89-6.11a685,685,0,0,0-465.89,201Z"/><path class="cls-3" d="M1387.42,713.75c-.81,0-1.61,0-2.41.06a691.16,691.16,0,0,1-1180,469A691.16,691.16,0,0,1,674,2.79c0-.8.06-1.6.06-2.41V0C300,10.59,0,317.13,0,693.75,0,1077,310.76,1387.81,694.05,1387.8c376.62,0,683.17-300,693.75-674Z"/><path class="cls-3" d="M215,215A677.32,677.32,0,1,0,1318,957.54a671.78,671.78,0,0,0,52.86-241.65,63.4,63.4,0,0,0-6.14,1.92A671,671,0,0,1,219.27,1168.54,671,671,0,0,1,670,23.08q1.11-3,1.93-6.14A674.88,674.88,0,0,0,215,215Z"/><path class="cls-3" d="M694.05,1439.61a776.33,776.33,0,0,1-255.11-42.83H131.76c0,160.71,130.28,291,291,291H965.05c160.71,0,291-130.29,291-291H949.15A776.22,776.22,0,0,1,694.05,1439.61Z"/><path class="cls-8" d="M422.76,1672.78a276,276,0,0,1-275.6-261H436.42a796.23,796.23,0,0,0,515.25,0h289a276,276,0,0,1-275.6,261Z"/><path class="cls-4" d="M295,1501.41h8.31l25.6,69.45h-10.5l-19.25-56-19.25,56H269.41Zm-13.8,44.95h36.54v9.27H281.21Z"/><path class="cls-4" d="M334.66,1521.28H357v8.79H334.66Zm7.9,46.5q-2.79-3.32-2.79-9.81v-51.11h9.74v51.2a4.64,4.64,0,0,0,.72,2.79,2.4,2.4,0,0,0,2.1,1H357v9.27h-5.64Q345.36,1571.1,342.56,1567.78Z"/><path class="cls-4" d="M366.56,1521.28h22.35v8.79H366.56Zm7.91,46.5q-2.81-3.32-2.8-9.81v-51.11h9.75v51.2a4.64,4.64,0,0,0,.71,2.79,2.43,2.43,0,0,0,2.1,1h4.68v9.27h-5.63Q377.27,1571.1,374.47,1567.78Z"/><path class="cls-4" d="M410.84,1569a17.21,17.21,0,0,1-7.43-7.57,26.26,26.26,0,0,1-2.56-12.06v-5.59a29.22,29.22,0,0,1,2.46-12.56,17.58,17.58,0,0,1,7.14-7.93,22,22,0,0,1,11.28-2.72,17.89,17.89,0,0,1,10.6,3.1,19.24,19.24,0,0,1,6.71,9,38.53,38.53,0,0,1,2.32,14.09V1550H407.92v-7.83h24.17q-.43-6.08-3.13-9.44a8.8,8.8,0,0,0-7.23-3.36q-5.55,0-8.58,3.63t-3,10.26v6.31q0,6.17,3.25,9.46t9.22,3.29a15.47,15.47,0,0,0,5.87-1.19,17,17,0,0,0,5.21-3.35l6.4,6.4a27,27,0,0,1-8.27,5.47,23.51,23.51,0,0,1-9.21,1.94A24.78,24.78,0,0,1,410.84,1569Z"/><path class="cls-4" d="M454.73,1521.28h9.74v49.58h-9.74Zm30.09,19.54q0-5.25-2.72-8.12a10,10,0,0,0-7.64-2.87c-3.19,0-5.65.85-7.38,2.53a9.46,9.46,0,0,0-2.61,7.12l-1-9.55a17.78,17.78,0,0,1,6-6.93,14.57,14.57,0,0,1,8.19-2.43q8.07,0,12.49,5.28t4.41,14.92v30.09h-9.74Z"/><path class="cls-4" d="M515.79,1569.36a15,15,0,0,1-5.85-6.9,27,27,0,0,1-2-10.9v-10.93a27.47,27.47,0,0,1,2-10.94,14.78,14.78,0,0,1,5.7-6.9,16.51,16.51,0,0,1,9-2.37,14.79,14.79,0,0,1,8,2.3,16.81,16.81,0,0,1,5.9,6.44l-1,10.13a11.7,11.7,0,0,0-1.15-5.4,7.81,7.81,0,0,0-3.32-3.41,11,11,0,0,0-5.27-1.17,9.43,9.43,0,0,0-7.48,3c-1.76,2-2.65,4.82-2.65,8.45v10.79c0,3.6.89,6.38,2.65,8.34a9.56,9.56,0,0,0,7.48,2.94,10.61,10.61,0,0,0,5.27-1.22,8,8,0,0,0,3.32-3.51,12.09,12.09,0,0,0,1.15-5.49l.67,10.46a14.13,14.13,0,0,1-4.85,6.16,13.61,13.61,0,0,1-8.29,2.48A17.47,17.47,0,0,1,515.79,1569.36Zm21.76-67.95h9.74v69.45h-9.74Z"/><path class="cls-4" d="M564.25,1567.78q-4.54-3.79-4.54-11.53c0-4.91,1.39-8.58,4.16-11s7-3.67,12.56-3.67h14.09l.67,7.83H576.48q-3.83,0-5.71,1.69a6.62,6.62,0,0,0-1.89,5.19,6.43,6.43,0,0,0,2.51,5.58q2.5,1.82,7.62,1.82,5.58,0,8.33-1.19a3.94,3.94,0,0,0,2.75-3.73l1,7a11.48,11.48,0,0,1-3.17,3.3,13.9,13.9,0,0,1-4.37,1.93,22.29,22.29,0,0,1-5.59.65Q568.78,1571.58,564.25,1567.78Zm25.84-28.35c0-3.24-.87-5.77-2.6-7.57s-4.2-2.7-7.38-2.7a19.16,19.16,0,0,0-5.81.91,17.53,17.53,0,0,0-5,2.53l-7.11-4.87a18.6,18.6,0,0,1,7.43-5.28,26.91,26.91,0,0,1,10.24-1.88,23.6,23.6,0,0,1,10.56,2.17,15.07,15.07,0,0,1,6.68,6.31,20.19,20.19,0,0,1,2.3,10v31.86h-9.27Z"/><path class="cls-4" d="M614.16,1521.28h9.75v49.58h-9.75Zm30.09,19.54q0-5.25-2.72-8.12a10,10,0,0,0-7.64-2.87c-3.19,0-5.65.85-7.38,2.53a9.46,9.46,0,0,0-2.6,7.12l-1-9.55a17.78,17.78,0,0,1,6-6.93,14.57,14.57,0,0,1,8.19-2.43q8.07,0,12.49,5.28t4.42,14.92v30.09h-9.75Z"/><path class="cls-4" d="M677.23,1569.05a17.13,17.13,0,0,1-7.33-7.36,24.75,24.75,0,0,1-2.53-11.65v-8.17a24.25,24.25,0,0,1,2.53-11.51,17.08,17.08,0,0,1,7.33-7.29,24.76,24.76,0,0,1,11.58-2.5,27.68,27.68,0,0,1,7.29.93,21.74,21.74,0,0,1,6.14,2.7,16.75,16.75,0,0,1,4.53,4.3l-7,6.3a14.59,14.59,0,0,0-4.92-3.68,14,14,0,0,0-5.87-1.29q-5.64,0-8.74,3.16t-3.11,8.88V1550q0,5.87,3.08,9.07c2.06,2.14,5,3.2,8.77,3.2a13.29,13.29,0,0,0,5.92-1.38,14.46,14.46,0,0,0,4.87-3.92l7,6.78a17.32,17.32,0,0,1-4.58,4.23,21.53,21.53,0,0,1-6.14,2.65,28.32,28.32,0,0,1-7.24.91A24.63,24.63,0,0,1,677.23,1569.05Z"/><path class="cls-4" d="M726.07,1569a17.21,17.21,0,0,1-7.43-7.57,26.26,26.26,0,0,1-2.55-12.06v-5.59a29.22,29.22,0,0,1,2.46-12.56,17.58,17.58,0,0,1,7.14-7.93,22,22,0,0,1,11.27-2.72,17.89,17.89,0,0,1,10.6,3.1,19.24,19.24,0,0,1,6.71,9,38.32,38.32,0,0,1,2.32,14.09V1550H723.16v-7.83h24.16c-.28-4.05-1.33-7.19-3.12-9.44a8.82,8.82,0,0,0-7.24-3.36q-5.55,0-8.57,3.63t-3,10.26v6.31q0,6.17,3.25,9.46t9.22,3.29a15.47,15.47,0,0,0,5.87-1.19,16.85,16.85,0,0,0,5.21-3.35l6.4,6.4a27,27,0,0,1-8.26,5.47,23.56,23.56,0,0,1-9.22,1.94A24.81,24.81,0,0,1,726.07,1569Z"/><path class="cls-4" d="M787.63,1501.41h49v9.27h-49Zm19.64,5.69H817v63.76h-9.74Z"/><path class="cls-4" d="M839.51,1521.28h9.74v49.58h-9.74Zm24,9.37a11.64,11.64,0,0,0-4.54-.82,9.75,9.75,0,0,0-7.19,2.56,9.59,9.59,0,0,0-2.55,7.09l-1-9.55a18.13,18.13,0,0,1,5.92-6.9,14,14,0,0,1,8-2.46,18,18,0,0,1,6.14,1,13.61,13.61,0,0,1,4.8,2.89l-6.35,8.59A8.18,8.18,0,0,0,863.53,1530.65Z"/><path class="cls-4" d="M883.4,1567.78q-4.54-3.79-4.54-11.53c0-4.91,1.39-8.58,4.16-11s7-3.67,12.56-3.67h14.09l.67,7.83H895.63q-3.82,0-5.71,1.69a6.62,6.62,0,0,0-1.89,5.19,6.43,6.43,0,0,0,2.51,5.58q2.51,1.82,7.62,1.82,5.58,0,8.33-1.19a3.94,3.94,0,0,0,2.75-3.73l1,7a11.39,11.39,0,0,1-3.18,3.3,13.7,13.7,0,0,1-4.37,1.93,22.15,22.15,0,0,1-5.58.65Q887.93,1571.58,883.4,1567.78Zm25.84-28.35c0-3.24-.87-5.77-2.61-7.57s-4.19-2.7-7.37-2.7a19.16,19.16,0,0,0-5.81.91,17.53,17.53,0,0,0-5,2.53l-7.11-4.87a18.64,18.64,0,0,1,7.42-5.28,27,27,0,0,1,10.25-1.88,23.55,23.55,0,0,1,10.55,2.17,15.09,15.09,0,0,1,6.69,6.31,20.19,20.19,0,0,1,2.29,10v31.86h-9.26Z"/><path class="cls-4" d="M941.74,1569.05a17.13,17.13,0,0,1-7.33-7.36,24.75,24.75,0,0,1-2.53-11.65v-8.17a24.25,24.25,0,0,1,2.53-11.51,17.08,17.08,0,0,1,7.33-7.29,24.76,24.76,0,0,1,11.58-2.5,27.68,27.68,0,0,1,7.29.93,21.55,21.55,0,0,1,6.13,2.7,16.65,16.65,0,0,1,4.54,4.3l-7,6.3a14.59,14.59,0,0,0-4.92-3.68,14,14,0,0,0-5.87-1.29c-3.76,0-6.68,1.05-8.74,3.16s-3.11,5.06-3.11,8.88V1550q0,5.87,3.08,9.07c2.06,2.14,5,3.2,8.77,3.2a13.29,13.29,0,0,0,5.92-1.38,14.46,14.46,0,0,0,4.87-3.92l7,6.78a17.32,17.32,0,0,1-4.58,4.23,21.65,21.65,0,0,1-6.14,2.65,28.32,28.32,0,0,1-7.24.91A24.63,24.63,0,0,1,941.74,1569.05Z"/><path class="cls-4" d="M982,1501.41h9.74v69.45H982Zm4.2,50.63,25.51-30.76h11.46l-37.59,42.32Zm11.51-9.79,6.26-6.49,21.63,35.1H1015Z"/><path class="cls-4" d="M1042.3,1569a17.24,17.24,0,0,1-7.42-7.57,26.13,26.13,0,0,1-2.56-12.06v-5.59a29.22,29.22,0,0,1,2.46-12.56,17.58,17.58,0,0,1,7.14-7.93,22,22,0,0,1,11.27-2.72,17.92,17.92,0,0,1,10.61,3.1,19.31,19.31,0,0,1,6.71,9,38.54,38.54,0,0,1,2.31,14.09V1550h-33.43v-7.83h24.17q-.43-6.08-3.13-9.44a8.81,8.81,0,0,0-7.24-3.36q-5.54,0-8.57,3.63t-3,10.26v6.31q0,6.17,3.25,9.46t9.21,3.29a15.48,15.48,0,0,0,5.88-1.19,16.81,16.81,0,0,0,5.2-3.35l6.4,6.4a26.85,26.85,0,0,1-8.26,5.47,23.52,23.52,0,0,1-9.22,1.94A24.84,24.84,0,0,1,1042.3,1569Z"/><path class="cls-4" d="M1086.2,1521.28h9.74v49.58h-9.74Zm24,9.37a11.61,11.61,0,0,0-4.54-.82,9.72,9.72,0,0,0-7.18,2.56,9.56,9.56,0,0,0-2.56,7.09l-1-9.55a18.22,18.22,0,0,1,5.92-6.9,14,14,0,0,1,8-2.46,18,18,0,0,1,6.14,1,13.61,13.61,0,0,1,4.8,2.89l-6.35,8.59A8.11,8.11,0,0,0,1110.22,1530.65Z"/></g></g></svg>